<svg width="1359" height="1045" viewBox="0 0 1359 1045" fill="none" xmlns="http://www.w3.org/2000/svg">
<g clip-path="url(#clip0)">
<path d="M1358.5 -0.5H-0.5V1045.5H1358.5V-0.5Z" fill="white"/>
<path d="M619.953 230.324C614.996 225.831 611.875 219.341 611.875 212.115C611.875 204.889 614.996 198.399 619.953 193.894" fill="#009DDD"/>
<path d="M619.953 230.324C614.996 225.831 611.875 219.341 611.875 212.115C611.875 204.889 614.996 198.399 619.953 193.894" stroke="#009DDD" stroke-width="0.036324" stroke-miterlimit="4.9939"/>
<path d="M657.779 225.8C657.779 225.362 658.141 225.012 658.578 225.012C659.015 225.012 659.377 225.362 659.377 225.8C659.377 226.238 659.028 226.588 658.578 226.588C658.129 226.601 657.779 226.238 657.779 225.8ZM658.566 226.413C658.903 226.413 659.178 226.138 659.178 225.812C659.178 225.475 658.903 225.212 658.566 225.212C658.229 225.212 657.967 225.475 657.967 225.812C657.967 226.138 658.229 226.413 658.566 226.413ZM658.466 226.15H658.304V225.45H658.591C658.653 225.45 658.716 225.45 658.766 225.487C658.828 225.525 658.853 225.587 658.853 225.662C658.853 225.737 658.803 225.812 658.728 225.85L658.853 226.15H658.678L658.566 225.875H658.441V226.15H658.466ZM658.466 225.762H658.553C658.591 225.762 658.628 225.762 658.653 225.75C658.678 225.737 658.691 225.7 658.691 225.675C658.691 225.65 658.678 225.612 658.653 225.6C658.628 225.587 658.578 225.587 658.553 225.587H658.466V225.762Z" fill="#009DDD"/>
<path d="M619.964 230.317C624.334 234.27 630.114 236.672 636.469 236.672C650.04 236.672 661.051 225.675 661.051 212.1C661.051 198.525 650.04 187.527 636.469 187.527C630.114 187.527 624.334 189.929 619.964 193.883C615.008 198.387 611.887 204.881 611.887 212.1C611.874 219.331 614.995 225.825 619.964 230.317Z" fill="#009DDD"/>
<path d="M627.917 209.497C627.817 208.622 627.68 207.746 627.505 206.895H612.449C612.636 206.007 612.873 205.143 613.16 204.293H626.793C626.494 203.404 626.144 202.528 625.757 201.69H614.221C614.646 200.789 615.12 199.926 615.645 199.088H624.346C623.785 198.174 623.148 197.311 622.474 196.485H617.517C618.279 195.559 619.103 194.684 619.989 193.883C615.632 189.929 609.839 187.527 603.485 187.527C589.914 187.527 578.902 198.525 578.902 212.1C578.902 225.675 589.914 236.672 603.485 236.672C609.839 236.672 615.62 234.27 619.989 230.317C620.876 229.516 621.712 228.64 622.474 227.714H617.517C616.843 226.888 616.219 226.025 615.645 225.112H624.346C624.871 224.274 625.345 223.41 625.77 222.509H614.234C613.834 221.671 613.485 220.795 613.185 219.907H626.818C627.106 219.056 627.343 218.193 627.53 217.305C627.717 216.454 627.855 215.578 627.942 214.702C628.029 213.851 628.079 212.976 628.079 212.1C628.042 211.224 628.004 210.361 627.917 209.497Z" fill="#007CC2"/>
<path d="M649.527 217.868C649.527 217.43 649.877 217.067 650.314 217.067C650.751 217.067 651.113 217.417 651.113 217.868C651.113 218.318 650.763 218.656 650.314 218.656C649.877 218.668 649.527 218.305 649.527 217.868ZM650.314 218.481C650.651 218.481 650.913 218.205 650.913 217.88C650.913 217.542 650.638 217.28 650.314 217.28C649.977 217.28 649.715 217.555 649.715 217.88C649.715 218.205 649.989 218.481 650.314 218.481ZM650.202 218.218H650.039V217.517H650.339C650.401 217.517 650.464 217.517 650.514 217.555C650.576 217.592 650.601 217.655 650.601 217.73C650.601 217.805 650.551 217.88 650.476 217.918L650.601 218.218H650.414L650.301 217.943H650.177V218.218H650.202ZM650.202 217.818H650.289C650.326 217.818 650.364 217.818 650.389 217.805C650.414 217.793 650.426 217.755 650.426 217.73C650.426 217.705 650.414 217.667 650.389 217.655C650.364 217.642 650.314 217.642 650.289 217.642H650.202V217.818Z" fill="white"/>
<path d="M603.46 208.697H607.33L605.071 219.206H601.213L603.46 208.697Z" fill="#003473"/>
<path d="M601.962 206.445C601.737 207.408 601.625 207.958 601.325 209.135C599.478 208.346 596.993 207.946 595.096 209.135C593.298 210.273 592.699 212.062 592.823 214.027C592.961 214.977 593.672 215.903 594.671 216.304C596.406 216.942 598.079 216.717 599.927 215.766C599.665 216.954 599.465 217.88 599.241 218.731C597.018 219.344 594.921 219.557 592.699 218.819C590.714 218.13 589.103 216.366 588.966 214.439C588.516 211.349 590.002 208.171 593.011 206.72C595.807 205.469 599.003 205.681 601.962 206.445Z" fill="#003473"/>
<path d="M639.777 212.162C639.777 213.514 640.676 214.439 642.699 215.14C644.26 215.678 644.497 215.828 644.497 216.316C644.497 216.979 643.81 217.28 642.299 217.28C641.151 217.28 640.09 217.154 638.866 216.854L638.342 219.319L638.517 219.344L639.216 219.457C639.44 219.494 639.778 219.519 640.214 219.544C641.126 219.607 641.825 219.632 642.324 219.632C646.369 219.632 648.242 218.506 648.242 216.066C648.242 214.602 647.456 213.739 645.545 213.101C643.935 212.563 643.748 212.438 643.748 211.937C643.748 211.362 644.384 211.061 645.62 211.061C646.369 211.061 647.406 211.124 648.379 211.224L648.929 208.747C647.942 208.634 646.432 208.534 645.558 208.534C641.238 208.559 639.753 210.198 639.777 212.162Z" fill="#003473"/>
<path d="M636.993 216.516C636.806 217.417 636.631 218.305 636.531 219.244H632.873L633.148 217.667L633.235 217.542C632.136 218.706 630.988 219.482 628.965 219.482C626.731 219.482 625.52 217.918 625.52 215.866C625.52 215.165 625.582 214.765 625.819 213.664L626.843 208.784H630.588L629.527 213.689C629.415 214.214 629.277 214.727 629.277 215.278C629.277 215.903 629.902 216.516 630.963 216.479C632.573 216.479 633.36 215.153 633.647 213.614L634.758 208.797H638.728L636.993 216.516Z" fill="#003473"/>
<path d="M625.819 208.659L624.596 211.562L623.972 211.449C622.935 211.299 621.999 212.062 621.525 212.85C620.626 214.827 620.339 217.067 619.864 219.194H615.869L616.056 218.468C616.756 215.215 617.654 211.937 618.166 208.684H621.674C621.762 209.235 621.5 209.748 621.45 210.298C622.211 209.623 622.96 208.259 625.782 208.634L625.819 208.659Z" fill="#003473"/>
<path d="M626.656 207.846C623.884 207.483 623.097 208.847 622.361 209.522C622.411 208.972 622.66 208.459 622.586 207.908H619.14C618.64 211.161 617.766 214.439 617.08 217.692L616.893 218.406H620.813C621.287 216.279 621.562 214.052 622.448 212.087C622.91 211.299 623.834 210.536 624.845 210.686L625.47 210.811L626.656 207.846Z" fill="white"/>
<path d="M604.409 207.896H608.166L605.932 218.406H602.174L604.409 207.896Z" fill="white"/>
<path d="M602.811 205.594C602.586 206.557 602.474 207.108 602.174 208.284C600.327 207.496 597.855 207.095 595.944 208.284C594.147 209.422 593.547 211.211 593.672 213.176C593.81 214.127 594.521 215.053 595.52 215.453C597.255 216.091 598.928 215.853 600.776 214.915C600.514 216.104 600.314 217.042 600.089 217.893C597.88 218.506 595.77 218.718 593.547 217.98C591.575 217.292 589.952 215.503 589.827 213.589C589.378 210.498 590.863 207.333 593.872 205.882C596.669 204.618 599.852 204.831 602.811 205.594Z" fill="white"/>
<path d="M640.627 211.312C640.627 212.663 641.526 213.589 643.549 214.289C645.097 214.827 645.346 214.977 645.346 215.465C645.346 216.129 644.66 216.429 643.149 216.429C642 216.429 640.939 216.291 639.716 216.003L639.191 218.468L639.366 218.493L640.078 218.606C640.302 218.643 640.64 218.668 641.077 218.693C641.988 218.756 642.7 218.781 643.186 218.781C647.231 218.781 649.104 217.655 649.104 215.215C649.104 213.751 648.318 212.888 646.407 212.237C644.797 211.699 644.61 211.574 644.61 211.074C644.61 210.498 645.246 210.198 646.482 210.198C647.231 210.198 648.268 210.261 649.242 210.361L649.791 207.883C648.792 207.771 647.294 207.671 646.42 207.671C642.1 207.708 640.615 209.347 640.627 211.312Z" fill="white"/>
<path d="M637.842 215.666C637.654 216.566 637.48 217.455 637.38 218.393H633.834L634.134 216.692H634.096C632.998 217.855 631.849 218.643 629.827 218.643C627.604 218.643 626.381 217.079 626.381 215.027C626.381 214.327 626.443 213.926 626.68 212.813L627.704 207.933H631.45L630.388 212.825C630.276 213.351 630.139 213.876 630.139 214.414C630.139 215.04 630.763 215.653 631.824 215.616C633.435 215.616 634.396 214.289 634.671 212.75L635.757 207.933H639.577L637.842 215.666Z" fill="white"/>
<path d="M617.243 208.659L616.02 211.562L615.395 211.449C614.359 211.299 613.423 212.062 612.949 212.85C612.05 214.827 611.762 217.067 611.288 219.194H607.293L607.48 218.468C608.179 215.215 609.078 211.937 609.59 208.684H613.098C613.186 209.235 612.924 209.748 612.874 210.298C613.635 209.623 614.384 208.259 617.206 208.634C617.193 208.634 617.243 208.659 617.243 208.659Z" fill="#003473"/>
<path d="M616.905 210.774L616.281 210.648C615.27 210.498 614.346 211.261 613.884 212.05C612.997 214.027 612.723 216.241 612.248 218.368H608.328L608.503 217.655C609.19 214.402 610.076 211.124 610.563 207.871H614.009C614.096 208.421 613.846 208.934 613.784 209.485C614.533 208.809 615.32 207.445 618.079 207.808L616.905 210.774Z" fill="white"/>
<path d="M499.78 297.07H426.42V342.97H499.78V297.07Z" fill="#0058A0"/>
<path d="M498.91 297.93H427.25V342.11H498.91V297.93Z" fill="white"/>
<path d="M496.64 300.07H429.41V340.19H496.64V300.07Z" fill="#0058A0"/>
<path d="M431.65 320.87H448.99L445.84 336.7L431.65 320.87Z" fill="white"/>
<path d="M431.65 320.87H448.99L445.84 336.7L431.65 320.87Z" stroke="#0058A0" stroke-width="0.00597296"/>
<path d="M454.98 303L451.98 318.55H469.03L454.98 303Z" fill="white"/>
<path d="M454.98 303L451.98 318.55H469.03L454.98 303Z" stroke="#0058A0" stroke-width="0.00597296"/>
<path d="M484.449 320.96H480.369L478.319 331.48C478.229 331.55 477.979 333.57 476.109 333.41C473.849 333.22 474.549 331 474.549 331L476.349 320.95L472.349 320.96L470.339 331.53C470.339 331.53 469.079 336.65 475.739 337.04C475.739 337.04 481.359 337.84 482.609 330.98C483.919 323.72 484.449 320.96 484.449 320.96Z" fill="white"/>
<path d="M484.449 320.96H480.369L478.319 331.48C478.229 331.55 477.979 333.57 476.109 333.41C473.849 333.22 474.549 331 474.549 331L476.349 320.95L472.349 320.96L470.339 331.53C470.339 331.53 469.079 336.65 475.739 337.04C475.739 337.04 481.359 337.84 482.609 330.98C483.919 323.72 484.449 320.96 484.449 320.96Z" stroke="#0058A0" stroke-width="0.00597296"/>
<path d="M482.951 331.49C482.951 331.49 481.251 336.71 488.051 337.02C488.051 337.02 493.741 336.91 493.731 331.86C493.731 331.86 494.161 328.87 489.371 326.83C489.371 326.83 488.361 326.38 488.311 325.37C488.251 324.36 489.331 324.17 489.331 324.17C489.331 324.17 490.071 323.97 490.471 324.42C490.761 324.74 490.721 325.97 490.721 325.97H494.521C494.521 325.97 496.011 320.74 489.841 320.67C489.841 320.67 485.261 320.39 484.271 324.85C484.271 324.85 483.641 327.5 485.741 328.87C487.851 330.24 488.281 330.28 489.051 330.83C489.821 331.38 489.901 333.41 488.311 333.52C486.521 333.64 486.891 331.49 486.861 331.49H482.951Z" fill="white"/>
<path d="M482.951 331.49C482.951 331.49 481.251 336.71 488.051 337.02C488.051 337.02 493.741 336.91 493.731 331.86C493.731 331.86 494.161 328.87 489.371 326.83C489.371 326.83 488.361 326.38 488.311 325.37C488.251 324.36 489.331 324.17 489.331 324.17C489.331 324.17 490.071 323.97 490.471 324.42C490.761 324.74 490.721 325.97 490.721 325.97H494.521C494.521 325.97 496.011 320.74 489.841 320.67C489.841 320.67 485.261 320.39 484.271 324.85C484.271 324.85 483.641 327.5 485.741 328.87C487.851 330.24 488.281 330.28 489.051 330.83C489.821 331.38 489.901 333.41 488.311 333.52C486.521 333.64 486.891 331.49 486.861 331.49H482.951Z" stroke="#0058A0" stroke-width="0.00597296"/>
<path d="M432.07 318.56L452.29 302.85L449.36 318.56H432.07Z" fill="white"/>
<path d="M432.07 318.56L452.29 302.85L449.36 318.56H432.07Z" stroke="#0058A0" stroke-width="0.00597296"/>
<path d="M463.729 320.88H467.859L465.579 333.01L469.929 333.02L469.259 336.65H460.709L463.729 320.88Z" fill="white"/>
<path d="M463.729 320.88H467.859L465.579 333.01L469.929 333.02L469.259 336.65H460.709L463.729 320.88Z" stroke="#0058A0" stroke-width="0.00597296"/>
<path d="M454.909 324.66L454.269 328.1H455.769C458.349 328.05 458.249 326.18 458.249 326.18C458.069 324.63 456.479 324.66 456.479 324.66H454.909ZM451.499 320.87L456.809 320.89C456.809 320.89 460.639 321.02 461.859 323.69C463.079 326.36 461.399 329.27 461.089 329.51C460.779 329.75 459.669 332.3 453.509 331.95L452.489 336.79H448.459L451.499 320.87Z" fill="white"/>
<path d="M454.909 324.66L454.269 328.1H455.769C458.349 328.05 458.249 326.18 458.249 326.18C458.069 324.63 456.479 324.66 456.479 324.66H454.909ZM451.499 320.87L456.809 320.89C456.809 320.89 460.639 321.02 461.859 323.69C463.079 326.36 461.399 329.27 461.089 329.51C460.779 329.75 459.669 332.3 453.509 331.95L452.489 336.79H448.459L451.499 320.87Z" stroke="#0058A0" stroke-width="0.00597296"/>
<path d="M932.08 329.39L972.25 228" stroke="#BCBCBC" stroke-width="1.6846" stroke-miterlimit="10"/>
<path d="M561.98 358.54L511.57 321.08" stroke="#BCBCBC" stroke-width="2.1163" stroke-miterlimit="10"/>
<path d="M677.479 312.94L625.609 246.13" stroke="#BCBCBC" stroke-width="2.1163" stroke-miterlimit="10"/>
<path d="M542.47 509.72L463.43 483.29" stroke="#BCBCBC" stroke-width="1.6846" stroke-miterlimit="10"/>
<path d="M772.381 264.11L784.281 202.04" stroke="#BCBCBC" stroke-width="1.6846" stroke-miterlimit="10"/>
<path d="M562.1 685.6L456.73 667.04" stroke="#BCBCBC" stroke-width="2.1163" stroke-miterlimit="10"/>
<path d="M1019.64 197.08C1019.64 211.97 1007.58 224.04 992.69 224.04C977.8 224.04 965.73 211.98 965.73 197.09V197.08C965.73 182.19 977.79 170.12 992.68 170.12C1007.57 170.12 1019.64 182.18 1019.64 197.07C1019.64 197.07 1019.64 197.07 1019.64 197.08Z" fill="#FF9900"/>
<path d="M956.35 170.13C941.55 170.22 929.57 182.26 929.57 197.08C929.57 211.96 941.65 224.03 956.52 224.03C963.5 224.03 969.87 221.37 974.66 217.01H974.67C975.65 216.12 976.57 215.15 977.41 214.12H971.89C971.15 213.23 970.48 212.3 969.88 211.34H979.4C979.98 210.41 980.5 209.45 980.97 208.45H968.3C967.87 207.52 967.49 206.58 967.17 205.62H982.09C982.99 202.93 983.48 200.06 983.48 197.07C983.48 195.09 983.27 193.16 982.86 191.3H966.38C966.58 190.34 966.84 189.4 967.15 188.47H982.07C981.74 187.48 981.35 186.52 980.91 185.58H968.29C968.75 184.61 969.26 183.66 969.84 182.75H979.36C978.73 181.74 978.03 180.78 977.27 179.86H971.96C972.78 178.89 973.68 177.99 974.66 177.14C969.87 172.78 963.5 170.12 956.52 170.12C956.47 170.13 956.41 170.13 956.35 170.13Z" fill="#CC0000"/>
<path d="M1016.93 211.17C1017.08 211.17 1017.22 211.21 1017.36 211.28C1017.5 211.35 1017.61 211.46 1017.69 211.6C1017.77 211.74 1017.81 211.89 1017.81 212.04C1017.81 212.19 1017.77 212.33 1017.69 212.47C1017.61 212.61 1017.51 212.72 1017.37 212.79C1017.23 212.87 1017.09 212.9 1016.94 212.9C1016.79 212.9 1016.64 212.86 1016.51 212.79C1016.37 212.71 1016.26 212.61 1016.19 212.47C1016.11 212.33 1016.08 212.19 1016.08 212.04C1016.08 211.89 1016.12 211.74 1016.2 211.6C1016.28 211.46 1016.39 211.35 1016.53 211.28C1016.64 211.21 1016.79 211.17 1016.93 211.17ZM1016.93 211.31C1016.81 211.31 1016.69 211.34 1016.57 211.4C1016.45 211.46 1016.36 211.55 1016.3 211.67C1016.23 211.79 1016.2 211.91 1016.2 212.03C1016.2 212.16 1016.23 212.28 1016.3 212.39C1016.37 212.5 1016.46 212.59 1016.57 212.66C1016.69 212.72 1016.81 212.76 1016.93 212.76C1017.06 212.76 1017.18 212.73 1017.29 212.66C1017.4 212.6 1017.49 212.51 1017.56 212.39C1017.62 212.28 1017.66 212.15 1017.66 212.03C1017.66 211.9 1017.63 211.78 1017.56 211.67C1017.5 211.55 1017.4 211.46 1017.29 211.4C1017.17 211.34 1017.05 211.31 1016.93 211.31ZM1016.55 212.52V211.58H1016.87C1016.98 211.58 1017.06 211.59 1017.11 211.61C1017.16 211.63 1017.2 211.66 1017.23 211.7C1017.26 211.74 1017.27 211.79 1017.27 211.84C1017.27 211.91 1017.25 211.97 1017.2 212.02C1017.15 212.07 1017.09 212.1 1017.01 212.11C1017.04 212.12 1017.07 212.14 1017.09 212.16C1017.13 212.2 1017.17 212.26 1017.23 212.35L1017.34 212.53H1017.16L1017.08 212.38C1017.01 212.26 1016.96 212.19 1016.92 212.16C1016.89 212.14 1016.85 212.13 1016.8 212.13H1016.71V212.53L1016.55 212.52ZM1016.7 211.99H1016.88C1016.97 211.99 1017.03 211.98 1017.06 211.95C1017.09 211.92 1017.11 211.89 1017.11 211.85C1017.11 211.82 1017.1 211.8 1017.09 211.78C1017.07 211.76 1017.05 211.74 1017.03 211.73C1017 211.72 1016.95 211.71 1016.88 211.71H1016.71L1016.7 211.99Z" fill="#FCB340"/>
<path d="M965.477 204.814L965.837 202.374C965.637 202.374 965.357 202.454 965.097 202.454C964.097 202.454 963.977 201.924 964.047 201.534L965.027 196.624H966.547L966.857 193.854H965.427L965.717 192.174H962.727C962.667 192.234 961.037 201.614 961.037 202.754C961.037 204.444 961.987 205.194 963.327 205.184C964.367 205.184 965.187 204.894 965.477 204.814Z" fill="#000066"/>
<path d="M966.377 200.164C966.377 204.224 969.057 205.184 971.337 205.184C973.447 205.184 974.547 204.694 974.547 204.694L975.057 201.924C975.057 201.924 973.277 202.644 971.837 202.644C968.757 202.644 969.297 200.344 969.297 200.344L975.217 200.364C975.217 200.364 975.597 198.504 975.597 197.744C975.597 195.854 974.567 193.534 971.417 193.534C968.517 193.534 966.377 196.644 966.377 200.164ZM971.417 196.104C973.037 196.104 972.737 197.924 972.737 198.074H969.547C969.547 197.884 969.847 196.104 971.417 196.104Z" fill="#000066"/>
<path d="M989.588 204.814L990.098 201.684C990.098 201.684 988.688 202.394 987.728 202.394C985.688 202.394 984.878 200.844 984.878 199.174C984.878 195.784 986.628 193.924 988.578 193.924C990.038 193.924 991.218 194.744 991.218 194.744L991.688 191.704C991.688 191.704 990.298 190.704 988.808 190.694C984.318 190.674 981.758 193.804 981.758 199.194C981.758 202.774 983.658 205.204 987.088 205.204C988.048 205.204 989.588 204.814 989.588 204.814Z" fill="#000066"/>
<path d="M949.688 193.584C947.718 193.584 946.208 194.214 946.208 194.214L945.788 196.684C945.788 196.684 947.038 196.174 948.918 196.174C949.988 196.174 950.768 196.294 950.768 197.164C950.768 197.694 950.668 197.884 950.668 197.884C950.668 197.884 949.828 197.814 949.438 197.814C946.638 197.814 944.348 198.874 944.348 202.064C944.348 204.584 946.058 205.154 947.118 205.154C949.148 205.154 949.948 203.874 949.988 203.874L949.968 204.934H952.498L953.628 197.034C953.628 193.694 950.708 193.584 949.688 193.584ZM950.128 200.004C950.188 200.484 950.008 202.764 948.278 202.764C947.388 202.764 947.158 202.084 947.158 201.684C947.158 200.894 947.588 199.954 949.688 199.954C950.168 199.954 950.048 199.984 950.128 200.004Z" fill="#000066"/>
<path d="M956.316 205.114C956.966 205.114 960.656 205.274 960.656 201.464C960.656 197.894 957.236 198.604 957.236 197.174C957.236 196.464 957.796 196.234 958.816 196.234C959.216 196.234 960.776 196.364 960.776 196.364L961.136 193.834C961.136 193.834 960.126 193.604 958.486 193.604C956.366 193.604 954.206 194.454 954.206 197.354C954.206 200.644 957.796 200.314 957.796 201.694C957.796 202.614 956.796 202.694 956.016 202.694C954.676 202.694 953.476 202.234 953.466 202.254L953.086 204.764C953.166 204.784 953.906 205.114 956.316 205.114Z" fill="#000066"/>
<path d="M1013.26 191.284L1012.74 195.154C1012.74 195.154 1011.66 193.664 1009.97 193.664C1006.79 193.664 1005.15 196.834 1005.15 200.474C1005.15 202.824 1006.32 205.134 1008.71 205.134C1010.43 205.134 1011.38 203.934 1011.38 203.934L1011.25 204.954H1014.04L1016.23 191.304L1013.26 191.284ZM1012.03 198.794C1012.03 200.314 1011.28 202.334 1009.72 202.334C1008.69 202.334 1008.2 201.464 1008.2 200.104C1008.2 197.874 1009.2 196.414 1010.46 196.414C1011.5 196.414 1012.03 197.124 1012.03 198.794Z" fill="#000066"/>
<path d="M934.147 204.964L935.897 194.664L936.157 204.964H938.137L941.827 194.664L940.197 204.964H943.137L945.397 191.294L940.727 191.254L937.947 199.624L937.867 191.294H933.587L931.297 204.964H934.147Z" fill="#000066"/>
<path d="M978.368 204.984C979.208 200.234 979.498 196.484 981.938 197.264C982.288 195.424 983.118 193.824 983.498 193.044C983.498 193.044 983.378 192.864 982.628 192.864C981.338 192.864 979.628 195.474 979.628 195.474L979.888 193.864H977.218L975.428 204.984H978.368Z" fill="#000066"/>
<path d="M995.598 193.584C993.628 193.584 992.118 194.214 992.118 194.214L991.698 196.684C991.698 196.684 992.948 196.174 994.828 196.174C995.898 196.174 996.678 196.294 996.678 197.164C996.678 197.694 996.578 197.884 996.578 197.884C996.578 197.884 995.738 197.814 995.348 197.814C992.548 197.814 990.258 198.874 990.258 202.064C990.258 204.584 991.968 205.154 993.028 205.154C995.048 205.154 995.858 203.874 995.898 203.874L995.878 204.934H998.408L999.538 197.034C999.538 193.694 996.618 193.584 995.598 193.584ZM996.038 199.994C996.088 200.474 995.918 202.754 994.188 202.754C993.298 202.754 993.068 202.074 993.068 201.674C993.068 200.884 993.498 199.944 995.598 199.944C996.078 199.954 995.958 199.984 996.038 199.994Z" fill="#000066"/>
<path d="M1002.45 204.984C1002.91 201.494 1003.76 196.584 1006.02 197.264C1006.37 195.424 1006.03 195.434 1005.28 195.434C1003.99 195.434 1003.71 195.484 1003.71 195.484L1003.97 193.874H1001.3L999.508 204.994L1002.45 204.984Z" fill="#000066"/>
<path d="M966.221 203.94L966.581 201.5C966.381 201.5 966.101 201.58 965.841 201.58C964.841 201.58 964.731 201.05 964.791 200.66L965.601 195.68H967.121L967.491 192.98H966.061L966.351 191.3H963.481C963.421 191.36 961.791 200.74 961.791 201.88C961.791 203.57 962.741 204.32 964.081 204.31C965.121 204.31 965.931 204.02 966.221 203.94Z" fill="white"/>
<path d="M967.131 199.29C967.131 203.35 969.811 204.31 972.091 204.31C974.201 204.31 975.121 203.84 975.121 203.84L975.631 201.07C975.631 201.07 974.031 201.78 972.581 201.78C969.501 201.78 970.041 199.48 970.041 199.48H975.871C975.871 199.48 976.251 197.62 976.251 196.86C976.251 194.97 975.311 192.67 972.161 192.67C969.261 192.67 967.131 195.78 967.131 199.29ZM972.161 195.24C973.781 195.24 973.481 197.06 973.481 197.21H970.291C970.301 197.02 970.601 195.24 972.161 195.24Z" fill="white"/>
<path d="M990.33 203.94L990.84 200.81C990.84 200.81 989.43 201.52 988.47 201.52C986.43 201.52 985.62 199.97 985.62 198.3C985.62 194.91 987.37 193.05 989.32 193.05C990.78 193.05 991.96 193.87 991.96 193.87L992.43 190.83C992.43 190.83 990.69 190.13 989.2 190.13C985.89 190.13 982.66 193 982.66 198.4C982.66 201.98 984.4 204.34 987.83 204.34C988.79 204.33 990.33 203.94 990.33 203.94Z" fill="white"/>
<path d="M950.44 192.71C948.47 192.71 946.96 193.34 946.96 193.34L946.54 195.81C946.54 195.81 947.79 195.3 949.67 195.3C950.74 195.3 951.52 195.42 951.52 196.29C951.52 196.82 951.42 197.01 951.42 197.01C951.42 197.01 950.58 196.94 950.19 196.94C947.71 196.94 945.1 198 945.1 201.19C945.1 203.71 946.81 204.28 947.87 204.28C949.89 204.28 950.77 202.97 950.81 202.96L950.72 204.06H953.25L954.38 196.16C954.38 192.82 951.45 192.71 950.44 192.71ZM951.05 199.15C951.1 199.63 950.75 201.9 949.02 201.9C948.13 201.9 947.9 201.22 947.9 200.82C947.9 200.03 948.33 199.09 950.43 199.09C950.92 199.08 950.97 199.13 951.05 199.15Z" fill="white"/>
<path d="M957.06 204.24C957.71 204.24 961.4 204.4 961.4 200.59C961.4 197.03 957.98 197.73 957.98 196.3C957.98 195.59 958.54 195.36 959.56 195.36C959.96 195.36 961.52 195.49 961.52 195.49L961.88 192.96C961.88 192.96 960.87 192.73 959.23 192.73C957.11 192.73 954.95 193.58 954.95 196.48C954.95 199.77 958.54 199.44 958.54 200.82C958.54 201.74 957.54 201.82 956.76 201.82C955.42 201.82 954.22 201.36 954.21 201.38L953.83 203.89C953.91 203.91 954.65 204.24 957.06 204.24Z" fill="white"/>
<path d="M1014.11 190.44L1013.49 194.28C1013.49 194.28 1012.41 192.79 1010.72 192.79C1008.09 192.79 1005.9 195.96 1005.9 199.6C1005.9 201.95 1007.07 204.26 1009.46 204.26C1011.18 204.26 1012.13 203.06 1012.13 203.06L1012 204.08H1014.79L1016.98 190.43L1014.11 190.44ZM1012.77 197.93C1012.77 199.45 1012.02 201.47 1010.46 201.47C1009.43 201.47 1008.94 200.6 1008.94 199.24C1008.94 197.02 1009.94 195.55 1011.2 195.55C1012.24 195.55 1012.77 196.25 1012.77 197.93Z" fill="white"/>
<path d="M934.9 204.09L936.65 193.79L936.91 204.09H938.89L942.58 193.79L940.95 204.09H943.89L946.15 190.42H941.61L938.78 198.8L938.63 190.42H934.44L932.15 204.09H934.9Z" fill="white"/>
<path d="M979.11 204.11C979.95 199.36 980.1 195.5 982.09 196.21C982.44 194.37 982.78 193.66 983.16 192.88C983.16 192.88 982.98 192.84 982.61 192.84C981.32 192.84 980.37 194.6 980.37 194.6L980.63 192.99H977.96L976.17 204.11H979.11Z" fill="white"/>
<path d="M996.957 192.71C994.987 192.71 993.477 193.34 993.477 193.34L993.057 195.81C993.057 195.81 994.307 195.3 996.187 195.3C997.257 195.3 998.037 195.42 998.037 196.29C998.037 196.82 997.937 197.01 997.937 197.01C997.937 197.01 997.097 196.94 996.707 196.94C994.227 196.94 991.617 198 991.617 201.19C991.617 203.71 993.327 204.28 994.387 204.28C996.407 204.28 997.287 202.97 997.327 202.96L997.237 204.06H999.767L1000.9 196.16C1000.9 192.82 997.977 192.71 996.957 192.71ZM997.577 199.15C997.627 199.63 997.277 201.9 995.547 201.9C994.657 201.9 994.427 201.22 994.427 200.82C994.427 200.03 994.857 199.09 996.957 199.09C997.437 199.08 997.487 199.13 997.577 199.15Z" fill="white"/>
<path d="M1003.21 204.11C1004.05 199.36 1004.2 195.5 1006.19 196.21C1006.54 194.37 1006.88 193.66 1007.26 192.88C1007.26 192.88 1007.08 192.84 1006.71 192.84C1005.42 192.84 1004.47 194.6 1004.47 194.6L1004.73 192.99H1002.06L1000.27 204.11H1003.21Z" fill="white"/>
<path d="M1016.92 202.39C1017.07 202.39 1017.21 202.43 1017.35 202.5C1017.49 202.57 1017.6 202.68 1017.68 202.82C1017.76 202.96 1017.8 203.1 1017.8 203.26C1017.8 203.41 1017.76 203.55 1017.68 203.69C1017.6 203.83 1017.5 203.94 1017.36 204.01C1017.22 204.09 1017.08 204.12 1016.93 204.12C1016.78 204.12 1016.63 204.08 1016.5 204.01C1016.36 203.93 1016.25 203.83 1016.18 203.69C1016.1 203.55 1016.06 203.41 1016.06 203.26C1016.06 203.11 1016.1 202.96 1016.18 202.82C1016.26 202.68 1016.37 202.57 1016.51 202.5C1016.63 202.43 1016.77 202.39 1016.92 202.39ZM1016.92 202.54C1016.8 202.54 1016.68 202.57 1016.56 202.64C1016.44 202.7 1016.35 202.79 1016.29 202.91C1016.22 203.03 1016.19 203.15 1016.19 203.27C1016.19 203.39 1016.22 203.52 1016.29 203.63C1016.35 203.74 1016.44 203.83 1016.56 203.9C1016.67 203.96 1016.8 204 1016.92 204C1017.05 204 1017.17 203.97 1017.28 203.9C1017.39 203.84 1017.49 203.75 1017.55 203.63C1017.61 203.51 1017.65 203.39 1017.65 203.27C1017.65 203.14 1017.62 203.02 1017.55 202.91C1017.49 202.79 1017.39 202.7 1017.28 202.64C1017.16 202.57 1017.04 202.54 1016.92 202.54ZM1016.54 203.75V202.81H1016.86C1016.97 202.81 1017.05 202.82 1017.1 202.84C1017.15 202.86 1017.19 202.89 1017.22 202.93C1017.25 202.97 1017.26 203.02 1017.26 203.07C1017.26 203.14 1017.24 203.2 1017.19 203.25C1017.14 203.3 1017.08 203.33 1017 203.34C1017.03 203.35 1017.06 203.37 1017.08 203.39C1017.12 203.43 1017.16 203.49 1017.22 203.58L1017.33 203.76H1017.14L1017.06 203.61C1016.99 203.49 1016.94 203.42 1016.9 203.39C1016.87 203.37 1016.83 203.36 1016.78 203.36H1016.69V203.76L1016.54 203.75ZM1016.69 203.22H1016.87C1016.96 203.22 1017.02 203.21 1017.05 203.18C1017.08 203.15 1017.1 203.12 1017.1 203.08C1017.1 203.05 1017.09 203.03 1017.08 203.01C1017.06 202.99 1017.04 202.97 1017.02 202.96C1016.99 202.95 1016.94 202.94 1016.87 202.94H1016.7L1016.69 203.22Z" fill="white"/>
<path d="M821.829 196.6H745.619V148.19H821.829V196.6Z" fill="white"/>
<path d="M746.889 188.73H820.559V195.34H746.889V188.73Z" fill="#F7B600"/>
<path d="M746.889 156.06H820.559V149.45H746.889V156.06Z" fill="#1A1F71"/>
<path d="M783.091 163.342L779.211 181.502H774.511L778.391 163.342H783.091ZM802.851 175.062L805.321 168.242L806.741 175.062H802.851ZM808.091 181.492H812.431L808.641 163.332H804.631C803.731 163.332 802.971 163.852 802.631 164.662L795.581 181.482H800.511L801.491 178.772H807.521C807.521 178.782 808.091 181.492 808.091 181.492ZM795.831 175.572C795.851 170.782 789.211 170.512 789.251 168.372C789.261 167.722 789.881 167.032 791.241 166.852C791.911 166.762 793.771 166.692 795.871 167.662L796.691 163.812C795.561 163.402 794.111 163.012 792.301 163.012C787.661 163.012 784.391 165.482 784.361 169.012C784.331 171.622 786.691 173.082 788.471 173.952C790.301 174.842 790.921 175.412 790.911 176.212C790.901 177.432 789.451 177.972 788.101 177.992C785.741 178.032 784.371 177.352 783.281 176.842L782.431 180.822C783.531 181.322 785.551 181.762 787.651 181.782C792.581 181.782 795.811 179.342 795.831 175.572ZM776.371 163.342L768.761 181.502H763.801L760.051 167.012C759.821 166.122 759.631 165.792 758.931 165.422C757.801 164.812 755.941 164.232 754.301 163.882L754.411 163.352H762.401C763.421 163.352 764.331 164.032 764.571 165.202L766.551 175.712L771.441 163.352H776.371V163.342Z" fill="#1A1F71"/>
<path d="M443.415 645.227H373.295V687.827H443.415V645.227Z" fill="white" stroke="#CD0E41" stroke-width="0.9793" stroke-miterlimit="3.1398"/>
<path d="M379.905 685.757C379.135 685.567 378.195 685.237 377.815 685.037L377.115 684.677L377.655 682.687C378.345 680.147 378.665 680.007 379.595 681.837C380.765 684.137 385.315 684.547 386.395 682.457C387.165 680.967 386.555 679.197 385.015 678.437C384.705 678.287 383.305 677.607 381.905 676.947C379.165 675.637 378.305 674.837 377.655 673.017C376.625 670.097 377.815 667.277 380.775 665.637C381.925 664.997 383.305 664.457 385.425 664.497C386.015 664.557 386.705 664.707 387.985 665.447L406.065 665.357L406.225 668.867L400.585 668.037L400.415 685.637H397.815H395.215L394.785 667.997L388.185 668.507C387.255 668.077 386.205 667.007 385.015 667.007C382.465 667.007 381.895 667.357 381.555 669.207C381.315 670.487 382.095 671.227 385.465 672.927C387.045 673.727 388.305 674.507 388.275 674.677C388.245 674.837 388.355 674.917 388.525 674.857C388.935 674.697 390.235 675.997 390.745 677.067C391.375 678.387 391.305 680.767 390.595 682.037C389.825 683.427 387.785 685.037 386.215 685.517C384.345 686.077 381.565 686.177 379.905 685.757ZM410.375 665.467L413.915 665.497L421.935 684.137L422.545 665.287L428.295 665.367C433.625 665.437 434.115 665.487 435.005 665.967C439.035 668.127 438.635 673.167 434.255 675.167L432.955 675.757L439.715 685.637L433.475 685.647L427.935 677.027L427.875 685.647H422.235H416.595L414.325 679.607H407.255L404.965 685.537L403.215 685.607L401.465 685.677L410.375 665.467ZM413.365 677.207L411.205 671.977L408.475 677.287C408.695 677.497 413.365 677.437 413.365 677.207ZM430.705 674.207C431.715 673.747 432.245 672.577 432.245 670.807C432.245 669.927 432.125 668.937 431.965 668.607C431.625 667.857 430.005 667.197 428.765 667.297L427.865 667.377L427.885 674.667C427.885 674.867 429.995 674.527 430.705 674.207ZM424.785 663.337L426.775 656.577L421.035 652.487L428.555 652.307L430.545 645.957L432.545 652.307L440.065 652.487L434.275 656.707L436.305 663.507C436.275 663.537 435.045 662.657 433.585 661.547C432.125 660.437 430.745 659.527 430.525 659.517L424.785 663.337ZM378.605 661.327C381.485 658.667 387.865 656.217 395.585 654.797C401.715 653.667 406.555 653.107 413.245 652.747C419.335 652.417 419.895 652.427 419.895 652.867C419.895 653.067 419.815 653.227 419.715 653.237C418.455 653.247 410.995 653.777 409.245 653.967C400.135 654.987 394.075 657.417 391.335 661.147L390.245 662.627L377.175 662.637L378.605 661.327Z" fill="#CD0E41"/>
<path d="M441.192 682.743C441.432 682.743 441.662 682.803 441.892 682.923C442.122 683.043 442.302 683.223 442.422 683.453C442.552 683.683 442.612 683.923 442.612 684.173C442.612 684.423 442.552 684.653 442.422 684.883C442.292 685.113 442.122 685.283 441.892 685.413C441.662 685.543 441.432 685.603 441.182 685.603C440.932 685.603 440.702 685.543 440.472 685.413C440.242 685.283 440.072 685.113 439.942 684.883C439.812 684.653 439.752 684.423 439.752 684.173C439.752 683.923 439.812 683.683 439.942 683.453C440.072 683.223 440.252 683.053 440.472 682.923C440.722 682.813 440.952 682.743 441.192 682.743ZM441.192 682.983C440.992 682.983 440.792 683.033 440.602 683.133C440.412 683.233 440.262 683.383 440.152 683.573C440.042 683.763 439.992 683.963 439.992 684.173C439.992 684.383 440.042 684.573 440.152 684.763C440.262 684.953 440.402 685.103 440.592 685.203C440.782 685.303 440.982 685.363 441.182 685.363C441.392 685.363 441.582 685.313 441.772 685.203C441.962 685.093 442.112 684.953 442.212 684.763C442.312 684.573 442.372 684.373 442.372 684.173C442.372 683.963 442.322 683.763 442.212 683.573C442.102 683.383 441.962 683.233 441.762 683.133C441.582 683.033 441.392 682.983 441.192 682.983ZM440.562 684.963V683.423H441.092C441.272 683.423 441.402 683.433 441.482 683.463C441.562 683.493 441.622 683.543 441.672 683.613C441.722 683.683 441.742 683.763 441.742 683.833C441.742 683.943 441.702 684.043 441.622 684.123C441.542 684.203 441.432 684.253 441.302 684.263C441.352 684.283 441.402 684.313 441.432 684.343C441.492 684.403 441.572 684.503 441.662 684.643L441.852 684.943H441.552L441.412 684.703C441.302 684.513 441.222 684.393 441.152 684.343C441.102 684.303 441.042 684.293 440.952 684.293H440.802V684.943L440.562 684.963ZM440.812 684.103H441.112C441.252 684.103 441.352 684.083 441.402 684.043C441.452 684.003 441.482 683.943 441.482 683.873C441.482 683.823 441.472 683.783 441.442 683.753C441.412 683.713 441.382 683.693 441.342 683.673C441.302 683.653 441.212 683.643 441.092 683.643H440.812V684.103Z" fill="#CD0E41"/>
<path d="M450.06 459.26H380.73V504.7H450.06V459.26Z" fill="#00249F"/>
<path d="M448.461 460.53H382.311V503.44H448.461V460.53Z" fill="#00249F" stroke="white" stroke-width="0.9443" stroke-miterlimit="10"/>
<path d="M427.93 472.59C427.21 470.53 425.15 469.25 423 469.23H420.96C420.75 468.62 420.54 468.03 420.32 467.42C418.95 463.65 413.67 463 411.19 466.04C410.46 466.93 410.15 468.15 409.78 469.23C409.1 469.23 408.42 469.23 407.74 469.23C405.59 469.25 403.53 470.54 402.82 472.59C402.11 474.62 402.93 476.8 404.67 478C405.22 478.37 405.77 478.74 406.32 479.11C406.11 479.71 405.9 480.31 405.69 480.9C405 482.94 405.86 485.11 407.61 486.3C409.42 487.53 411.89 487.54 413.72 486.33C414.27 485.96 414.82 485.59 415.37 485.22C415.91 485.59 416.46 485.95 417.02 486.33C418.85 487.54 421.32 487.53 423.13 486.3C424.89 485.11 425.74 482.95 425.05 480.9L424.42 479.11C424.97 478.74 425.52 478.37 426.07 477.99C427.82 476.81 428.65 474.63 427.93 472.59Z" fill="white"/>
<path d="M423.491 476.42C424.161 475.97 424.891 475.58 425.171 474.77C425.691 473.3 424.441 471.94 422.981 471.93C419.591 471.93 416.201 471.92 412.801 471.92C413.031 471.29 413.251 470.65 413.471 470.02H423.001C424.791 470.04 426.521 471.1 427.121 472.83C427.711 474.53 427.021 476.35 425.561 477.36C425.081 477.68 424.621 478 424.141 478.31C423.941 477.7 423.711 477.06 423.491 476.42Z" fill="#FDA702"/>
<path d="M417.861 483.56C418.351 483.9 418.851 484.29 419.441 484.46C421.081 484.92 422.881 483.47 422.301 481.73L419.151 472.74L421.311 472.73C422.301 475.54 423.271 478.35 424.261 481.15C424.831 482.85 424.121 484.68 422.651 485.67C421.131 486.7 419.061 486.7 417.531 485.69C417.061 485.37 416.591 485.05 416.121 484.73C416.691 484.35 417.271 483.96 417.861 483.56Z" fill="#FDA702"/>
<path d="M408.811 480.79C408.551 481.53 408.221 482.24 408.491 483.04C408.981 484.49 410.821 484.96 412.061 484.15L420.271 478.59L420.951 480.49C418.381 482.23 415.811 483.96 413.251 485.7C412.101 486.47 410.661 486.63 409.381 486.26C408.111 485.89 407.011 484.99 406.541 483.64C406.051 482.21 406.601 480.96 407.071 479.63C407.651 480.01 408.231 480.39 408.811 480.79Z" fill="#FDA702"/>
<path d="M408.851 471.93C408.021 471.92 407.191 471.85 406.451 472.33C405.181 473.18 405.171 474.96 406.431 475.83L414.661 481.39C414.081 481.79 413.501 482.18 412.921 482.58C410.351 480.84 407.781 479.11 405.211 477.38C402.841 475.76 402.871 472.4 405.251 470.81C406.561 469.93 408.031 470.04 409.521 470.04C409.291 470.66 409.071 471.3 408.851 471.93Z" fill="#FDA702"/>
<path d="M417.921 469.23C417.811 468.92 417.701 468.61 417.601 468.29C416.881 466.34 413.891 466.33 413.181 468.29C412.131 471.29 411.101 474.29 410.051 477.29C409.461 476.9 408.881 476.51 408.291 476.11C409.281 473.31 410.251 470.5 411.231 467.69C412.381 464.52 416.811 463.97 418.881 466.53C419.491 467.27 419.761 468.32 420.081 469.24L417.921 469.23Z" fill="#FDA702"/>
<path d="M423.841 475.2C423.631 475.35 423.421 475.49 423.201 475.63L422.191 472.72C422.751 472.72 423.341 472.66 423.821 472.99C424.621 473.53 424.631 474.65 423.841 475.2Z" fill="#00249F" stroke="white" stroke-width="0.9443" stroke-miterlimit="10"/>
<path d="M420.93 483.49C420.42 483.83 419.73 483.84 419.22 483.5C419.01 483.36 418.8 483.22 418.58 483.07C419.47 482.47 420.35 481.87 421.24 481.28C421.32 481.51 421.41 481.74 421.49 481.97C421.67 482.55 421.43 483.16 420.93 483.49Z" fill="#00249F" stroke="white" stroke-width="0.9443" stroke-miterlimit="10"/>
<path d="M409.84 483.49C409.35 483.16 409.1 482.55 409.3 481.98L409.54 481.29L412.19 483.08C411.98 483.23 411.77 483.37 411.55 483.51C411.04 483.83 410.35 483.83 409.84 483.49Z" fill="#00249F" stroke="white" stroke-width="0.9443" stroke-miterlimit="10"/>
<path d="M406.41 473.67C406.61 473.1 407.19 472.72 407.79 472.72H408.57C408.23 473.69 407.89 474.66 407.55 475.63C407.34 475.48 407.13 475.34 406.91 475.2C406.43 474.86 406.21 474.25 406.41 473.67Z" fill="#00249F" stroke="white" stroke-width="0.9443" stroke-miterlimit="10"/>
<path d="M412.53 472.73H418.24L420.01 477.79L415.39 480.92C413.85 479.89 412.31 478.84 410.76 477.8C411.35 476.11 411.94 474.42 412.53 472.73Z" fill="#00249F" stroke="white" stroke-width="0.9443" stroke-miterlimit="10"/>
<path d="M415.39 467.6C415.99 467.6 416.57 467.96 416.78 468.53C416.86 468.76 416.94 468.99 417.02 469.22H413.75C413.83 468.99 413.91 468.76 413.99 468.53C414.2 467.96 414.79 467.6 415.39 467.6Z" fill="#00249F" stroke="white" stroke-width="0.9443" stroke-miterlimit="10"/>
<path d="M387.081 490.53H389.321L387.591 498.84H385.361L387.081 490.53Z" fill="white"/>
<path d="M390.731 490.53H393.501L395.211 496.29H395.231L396.401 490.53H398.501L396.731 498.84H393.971L392.231 493.09H392.201L391.051 498.84H388.961L390.731 490.53Z" fill="white"/>
<path d="M400.84 492.17H398.76L399.12 490.53H405.51L405.16 492.17H403.08L401.67 498.83H399.42L400.84 492.17Z" fill="white"/>
<path d="M405.95 490.53H411.8L411.48 492.1H407.82L407.44 493.82H410.9L410.56 495.38H407.11L406.7 497.27H410.5L410.18 498.84H404.17L405.95 490.53Z" fill="white"/>
<path d="M412.521 490.53H415.181C416.761 490.54 418.671 490.59 418.671 492.65C418.671 494.11 417.531 494.63 416.261 494.78V494.8C416.911 494.86 417.121 495.74 417.251 496.28L417.851 498.84H415.641L415.211 496.72C414.991 495.64 414.931 495.55 413.931 495.55H413.701L413.041 498.84H410.811L412.521 490.53Z" fill="white"/>
<path d="M420.21 490.53H422.45L421.07 497.19H424.55L424.2 498.84H418.48L420.21 490.53Z" fill="white"/>
<path d="M426.681 490.53H428.911L427.181 498.84H424.951L426.681 490.53Z" fill="white"/>
<path d="M430.12 490.53H432.89L434.59 496.29H434.62L435.78 490.53H437.88L436.12 498.84H433.36L431.62 493.09H431.59L430.44 498.84H428.35L430.12 490.53Z" fill="white"/>
<path d="M439.141 490.53H441.381L440.661 493.92H440.681L443.691 490.53H446.551L442.601 494.57L445.051 498.84H442.501L440.451 495.06H440.421L439.621 498.84H437.391L439.141 490.53Z" fill="white"/>
<path d="M413.99 493.98H414.74C415.7 493.98 416.45 493.75 416.45 492.95C416.45 492.36 416.09 492.1 415.42 492.09H414.36L413.99 493.98Z" fill="#00249F"/>
<path d="M810.33 911.46C770.11 911.46 737.9 904.89 719.18 892.79L719.31 892.58C759.88 918.79 862.21 917.09 947.43 888.79L947.51 889.03C906.2 902.75 859.71 910.69 816.59 911.4C814.48 911.44 812.39 911.46 810.33 911.46Z" stroke="#9DCCD1" stroke-width="0.4196" stroke-miterlimit="10"/>
<path d="M745.67 850.09C714 850.09 685.09 847.7 659.6 842.96C630.26 837.5 606.76 829.17 589.74 818.17L589.87 817.96C621.85 838.62 676.9 849.84 745.62 849.84C749.16 849.84 752.72 849.81 756.33 849.75C830.06 848.53 909.57 834.94 980.21 811.49L980.29 811.73C909.63 835.19 830.09 848.78 756.33 850C752.75 850.06 749.19 850.09 745.67 850.09Z" stroke="#9DCCD1" stroke-width="0.4196" stroke-miterlimit="10"/>
<path d="M800.341 912.15C785.451 912.15 770.811 909.23 756.651 903.41C742.501 897.59 728.941 888.9 716.351 877.57C703.701 866.19 692.031 852.14 681.671 835.82C671.121 819.21 661.901 800.21 654.271 779.35C646.411 757.88 640.201 734.32 635.811 709.34L636.061 709.3C653.191 806.69 698.321 879.17 756.761 903.18C796.851 919.65 839.891 912.86 881.231 883.54L881.371 883.74C860.481 898.56 838.981 907.69 817.471 910.87C811.731 911.73 806.021 912.15 800.341 912.15Z" stroke="#6CC9D8" stroke-width="1.6846" stroke-miterlimit="10"/>
<path d="M865.639 911.08C865.599 911.08 865.549 911.08 865.509 911.08C846.299 910.71 819.819 830.47 798.029 706.65L798.279 706.61C809.129 768.27 821.279 820.07 833.409 856.42C845.229 891.84 856.329 910.65 865.509 910.83C865.549 910.83 865.599 910.83 865.639 910.83C872.049 910.83 877.269 901.67 881.169 883.61L881.409 883.66C877.489 901.86 872.179 911.08 865.639 911.08Z" stroke="#6CC9D8" stroke-width="1.6846" stroke-miterlimit="10"/>
<path d="M921.411 897.9C919.771 897.9 918.121 897.82 916.431 897.64C905.581 896.54 893.721 891.87 881.181 883.77L880.961 883.63L881.211 883.55C915.361 872.21 947.231 855.62 976.081 834.95C977.551 828.54 978.771 821.68 979.741 814.39C984.931 775.16 982.431 724.62 972.501 668.22L972.481 668.11L972.581 668.08C1044.46 644.21 1100.55 613.93 1133.41 582.59C1139.26 546.12 1139.39 508.89 1132.95 472.29L1132.9 472.01L1133.14 472.17C1145.4 480.09 1154.39 489.03 1159.86 498.73C1165.17 508.15 1167.18 518.32 1165.83 528.96C1163.63 546.23 1152.66 564.47 1133.74 582.59C1132.77 588.67 1131.63 594.76 1130.34 600.85C1121.4 642.87 1105.13 683.33 1082 721.13C1058.86 758.93 1030.02 792.14 996.281 819.86C989.741 825.23 983.081 830.35 976.281 835.21C970.051 862.26 959.381 881.31 944.971 890.87C937.911 895.54 930.001 897.9 921.411 897.9ZM881.531 883.71C906.031 899.47 927.921 901.87 944.831 890.65C959.141 881.16 969.741 862.25 975.971 835.42C946.631 856.38 914.951 872.58 881.531 883.71ZM972.771 668.28C982.681 724.66 985.181 775.19 979.991 814.42C979.041 821.61 977.841 828.39 976.391 834.73C1059.35 775.17 1117.4 681.89 1133.36 582.93C1126.78 589.2 1119.24 595.45 1110.79 601.65C1076.84 626.52 1029.12 649.56 972.771 668.28ZM1133.25 472.52C1139.51 508.29 1139.69 545.1 1133.79 582.22C1152.31 564.45 1163.36 546.36 1165.58 528.91C1168.3 507.52 1157.12 488.03 1133.25 472.52Z" stroke="#9DCCD1" stroke-width="0.4196" stroke-miterlimit="10"/>
<path d="M947.51 889.03L947.43 888.79C1004.39 869.88 1041.7 842.98 1044.8 818.6C1046.17 807.79 1040.5 797.94 1028.39 790.12L1028.52 789.91C1040.72 797.79 1046.43 807.72 1045.04 818.63C1041.94 843.12 1004.56 870.09 947.51 889.03Z" stroke="#9DCCD1" stroke-width="0.4196" stroke-miterlimit="10"/>
<path d="M980.301 811.73L980.221 811.49C1077.69 779.13 1141.55 733.09 1146.86 691.34C1149.22 672.82 1139.49 655.94 1118.74 642.53L1118.87 642.32C1129.46 649.16 1137.22 656.88 1141.95 665.26C1146.54 673.4 1148.27 682.19 1147.1 691.37C1144.53 711.54 1128.1 733.25 1099.57 754.16C1070.24 775.66 1028.99 795.56 980.301 811.73Z" stroke="#9DCCD1" stroke-width="0.4196" stroke-miterlimit="10"/>
<path d="M908.529 885.25C899.599 885.25 890.519 884.76 881.279 883.77L881.309 883.52C890.429 884.5 899.429 884.98 908.249 884.98C966.429 884.98 1017.68 863.98 1054.59 824.49C1103.5 772.16 1122.69 691.79 1107.25 604L1107.5 603.96C1115.38 648.75 1114.51 691.05 1104.92 729.69C1100.32 748.23 1093.7 765.73 1085.24 781.71C1076.85 797.57 1066.6 812.02 1054.78 824.66C1033.96 846.94 1008.68 863.39 979.649 873.57C957.469 881.34 933.639 885.25 908.529 885.25Z" stroke="#6CC9D8" stroke-width="1.6846" stroke-miterlimit="10"/>
<path d="M881.309 883.76L881.279 883.51C975.299 872.32 1059.44 825.23 1112.12 754.34C1159.83 690.13 1178.54 611.78 1164.8 533.7L1165.05 533.66C1178.8 611.81 1160.07 690.24 1112.32 754.49C1099.57 771.65 1084.83 787.64 1068.52 802.01C1052.07 816.5 1033.9 829.45 1014.53 840.49C974.169 863.48 929.349 878.04 881.309 883.76Z" stroke="#9DCCD1" stroke-width="0.4196" stroke-miterlimit="10"/>
<path d="M881.269 883.78L881.219 883.75C861.509 871.02 840.959 850.48 820.129 822.7C800.009 795.87 780.479 763.46 762.069 726.36C743.669 689.26 727.319 649.34 713.479 607.71C699.149 564.61 688.159 521.55 680.799 479.74L680.779 479.63L680.879 479.6C722.239 465.87 766.219 455.04 811.599 447.41C855.429 440.04 898.709 435.96 940.249 435.27C981.779 434.59 1019.48 437.33 1052.29 443.43C1086.26 449.75 1113.48 459.4 1133.19 472.13L1133.24 472.16L1133.25 472.21C1140.61 514.04 1139.65 557.3 1130.39 600.8C1121.45 642.82 1105.18 683.28 1082.05 721.08C1058.91 758.88 1030.07 792.09 996.329 819.81C961.389 848.51 922.709 870.02 881.339 883.76L881.269 883.78ZM681.079 479.79C695.639 562.47 724.479 649.99 762.299 726.24C800.119 802.48 842.379 858.33 881.309 883.5C1050.11 827.42 1163.01 642.98 1133.01 472.3C1094.06 447.16 1025.59 434.09 940.259 435.51C854.909 436.92 762.859 452.65 681.079 479.79Z" stroke="#9DCCD1" stroke-width="0.4196" stroke-miterlimit="10"/>
<path d="M800.269 793.91L800.189 793.67C841.499 779.95 887.989 772.01 931.109 771.3C933.219 771.26 935.309 771.25 937.369 771.25C977.589 771.25 1009.8 777.82 1028.52 789.92L1028.39 790.13C987.819 763.92 885.489 765.62 800.269 793.91Z" stroke="#9DCCD1" stroke-width="0.4196" stroke-miterlimit="10"/>
<path d="M728.391 649L728.311 648.76C798.971 625.3 878.511 611.71 952.271 610.49C988.131 609.89 1020.69 612.27 1049.02 617.53C1078.36 622.98 1101.86 631.32 1118.88 642.32L1118.75 642.53C1086.77 621.87 1031.73 610.65 963.001 610.65C959.461 610.65 955.901 610.68 952.291 610.74C878.541 611.96 799.031 625.55 728.391 649Z" stroke="#9DCCD1" stroke-width="0.4196" stroke-miterlimit="10"/>
<path d="M1017.56 438.58L1017.81 438.54C1025.17 480.36 1027.26 524.51 1024.02 569.76C1020.89 613.47 1012.96 656.36 1000.43 697.24C987.9 738.13 971.41 774.95 951.42 806.67C930.72 839.52 907.15 865.45 881.37 883.74L881.23 883.54C932.19 847.39 974.44 781.21 1000.19 697.17" stroke="#6CC9D8" stroke-width="1.6846" stroke-miterlimit="10"/>
<path d="M881.41 883.67L881.17 883.62C896.97 810.46 885.38 612.02 855.33 441.26L855.58 441.22C885.63 612 897.22 810.48 881.41 883.67Z" stroke="#9DCCD1" stroke-width="0.4196" stroke-miterlimit="10"/>
<path d="M719.18 892.79C706.98 884.91 701.27 874.98 702.66 864.07C705.77 839.59 743.15 812.61 800.2 793.67L800.28 793.91C743.32 812.82 706.01 839.72 702.91 864.1C701.54 874.91 707.21 884.76 719.32 892.58L719.18 892.79Z" stroke="#9DCCD1" stroke-width="0.4196" stroke-miterlimit="10"/>
<path d="M589.741 818.17C579.151 811.33 571.391 803.61 566.661 795.23C562.071 787.09 560.341 778.3 561.511 769.12C564.081 748.95 580.511 727.24 609.041 706.33C638.371 684.83 679.621 664.93 728.311 648.76L728.391 649C630.921 681.36 567.061 727.4 561.751 769.15C559.391 787.68 569.121 804.55 589.871 817.96L589.741 818.17Z" stroke="#9DCCD1" stroke-width="0.4196" stroke-miterlimit="10"/>
<path d="M881.279 883.76C843.389 879.7 805.189 867.58 767.749 847.72C731.589 828.54 697.639 802.99 666.859 771.78C636.079 740.57 610.019 705.27 589.389 666.87C568.039 627.11 553.479 585.74 546.119 543.92L546.369 543.88C576.399 714.6 726.659 866.96 881.309 883.52L881.279 883.76Z" stroke="#6CC9D8" stroke-width="1.6846" stroke-miterlimit="10"/>
<path d="M836.681 886.42C805.961 886.42 775.391 882.64 745.361 875.09C702.341 864.28 662.231 846.25 626.171 821.5C590.101 796.75 559.881 766.52 536.351 731.65C511.991 695.55 495.911 656.04 488.551 614.22L488.801 614.18C518.841 784.89 694.901 905.72 881.271 883.52L881.301 883.77C866.431 885.54 851.541 886.42 836.681 886.42Z" stroke="#6CC9D8" stroke-width="1.0582" stroke-miterlimit="10"/>
<path d="M700.99 712.71C664.31 712.71 630.84 709.94 601.31 704.45C567.34 698.13 540.12 688.48 520.41 675.74L520.36 675.71L520.35 675.66C512.99 633.83 513.95 590.57 523.21 547.06C532.15 505.04 548.42 464.57 571.55 426.78C594.68 388.98 623.52 355.76 657.27 328.04C692.21 299.34 730.89 277.83 772.26 264.09L772.32 264.07L772.37 264.1C792.08 276.83 812.63 297.37 833.46 325.15C853.58 351.98 873.11 384.39 891.52 421.5C909.92 458.6 926.27 498.53 940.11 540.16C954.44 583.26 965.43 626.32 972.79 668.14L972.81 668.25L972.71 668.28C931.35 682.01 887.37 692.84 841.99 700.47C798.16 707.84 754.88 711.92 713.34 712.61C709.19 712.68 705.06 712.71 700.99 712.71ZM972.53 668.08C957.97 585.39 929.13 497.87 891.31 421.62C853.49 345.37 811.23 289.53 772.3 264.35C603.5 320.43 490.6 504.88 520.6 675.56C559.55 700.7 628.01 713.78 713.35 712.35C798.7 710.95 890.75 695.22 972.53 668.08Z" stroke="#9DCCD1" stroke-width="0.4196" stroke-miterlimit="10"/>
<path d="M690.66 537.46C658.99 537.46 630.081 535.07 604.591 530.33C575.251 524.88 551.75 516.54 534.73 505.54L534.86 505.33C568.48 527.05 627.6 538.34 701.32 537.12C775.05 535.9 854.561 522.31 925.201 498.86L925.281 499.1C854.621 522.56 775.08 536.15 701.32 537.37C697.75 537.43 694.18 537.46 690.66 537.46Z" stroke="#6CC9D8" stroke-width="1.6846" stroke-miterlimit="10"/>
<path d="M716.23 376.6C676.01 376.6 643.8 370.03 625.08 357.93L625.21 357.72C665.78 383.93 768.11 382.23 853.33 353.94L853.41 354.18C812.1 367.9 765.61 375.84 722.49 376.55C720.38 376.59 718.29 376.6 716.23 376.6Z" stroke="#9DCCD1" stroke-width="0.4196" stroke-miterlimit="10"/>
<path d="M635.8 709.34C628.44 667.52 626.35 623.37 629.59 578.11C632.72 534.4 640.65 491.51 653.18 450.62C665.71 409.73 682.2 372.91 702.19 341.18C722.89 308.33 746.46 282.39 772.24 264.11L772.38 264.31C721.42 300.46 679.17 366.65 653.42 450.69C627.67 534.74 621.5 626.58 636.05 709.29L635.8 709.34Z" stroke="#6CC9D8" stroke-width="1.6846" stroke-miterlimit="10"/>
<path d="M798.03 706.65C767.98 535.86 756.39 337.37 772.19 264.18L772.43 264.23C756.63 337.39 768.22 535.83 798.27 706.6L798.03 706.65Z" stroke="#6CC9D8" stroke-width="1.6846" stroke-miterlimit="10"/>
<path d="M925.291 499.1L925.211 498.86C1022.68 466.5 1086.54 420.46 1091.85 378.7C1094.21 360.18 1084.48 343.3 1063.73 329.89L1063.86 329.68C1074.45 336.52 1082.21 344.24 1086.94 352.62C1091.53 360.76 1093.26 369.55 1092.09 378.73C1089.52 398.9 1073.09 420.61 1044.56 441.52C1015.23 463.02 973.991 482.93 925.291 499.1Z" stroke="#6CC9D8" stroke-width="1.6846" stroke-miterlimit="10"/>
<path d="M853.41 354.18L853.33 353.94C910.29 335.03 947.6 308.13 950.7 283.75C952.08 272.94 946.4 263.09 934.29 255.27L934.42 255.06C946.62 262.94 952.33 272.87 950.94 283.78C947.84 308.26 910.46 335.24 853.41 354.18Z" stroke="#9DCCD1" stroke-width="0.4196" stroke-miterlimit="10"/>
<path d="M772.301 264.34L772.331 264.09C810.221 268.15 848.421 280.27 885.861 300.13C922.031 319.31 955.971 344.86 986.751 376.08C1017.53 407.29 1043.59 442.59 1064.22 480.99C1085.57 520.75 1100.13 562.12 1107.49 603.94L1107.24 603.98" stroke="#6CC9D8" stroke-width="1.6846" stroke-miterlimit="10"/>
<path d="M1164.8 533.7C1134.76 362.98 958.679 242.14 772.319 264.34L772.289 264.09C817.949 258.65 863.689 261.57 908.229 272.76C951.249 283.57 991.359 301.6 1027.42 326.36C1063.49 351.12 1093.71 381.35 1117.24 416.21C1141.6 452.31 1157.68 491.82 1165.04 533.65L1164.8 533.7Z" stroke="#9DCCD1" stroke-width="0.4196" stroke-miterlimit="10"/>
<path d="M680.841 479.87L680.811 479.73C670.881 423.3 668.381 372.73 673.571 333.48C678.621 295.32 690.731 268.89 708.591 257.04C716.991 251.46 726.601 249.18 737.141 250.25C747.971 251.35 759.811 256 772.331 264.08C814.381 250.12 856.621 245.06 897.851 249.03C917.671 250.94 937.141 254.97 955.721 261.02C974.131 267.01 991.801 275.03 1008.26 284.86C1040.55 304.13 1067.73 329.83 1089.06 361.24C1111.14 393.76 1126.01 431.1 1133.24 472.22L1133.29 472.5L1133.05 472.34C1096.01 448.41 1032.26 435.41 952.661 435.41C948.561 435.41 944.441 435.44 940.261 435.51C854.861 436.92 762.781 452.66 680.971 479.82L680.841 479.87ZM732.091 250.29C723.561 250.29 715.721 252.6 708.721 257.24C690.921 269.05 678.851 295.42 673.811 333.5C668.631 372.69 671.121 423.19 681.021 479.54C722.341 465.83 766.271 455.02 811.601 447.4C855.431 440.03 898.711 435.95 940.251 435.26C981.781 434.58 1019.48 437.32 1052.29 443.42C1086.12 449.71 1113.26 459.32 1132.95 471.97C1118.62 390.92 1074.3 324.56 1008.13 285.07C939.381 244.04 855.641 236.68 772.351 264.33L772.291 264.35L772.241 264.32C757.791 254.98 744.251 250.29 732.091 250.29Z" stroke="#9DCCD1" stroke-width="0.4196" stroke-miterlimit="10"/>
<path d="M673.391 336.37L673.311 336.13C743.971 312.67 823.511 299.08 897.271 297.86C933.141 297.26 965.691 299.64 994.021 304.9C1023.36 310.35 1046.86 318.69 1063.88 329.69L1063.75 329.9C1031.77 309.24 976.731 298.02 908.001 298.02C904.461 298.02 900.901 298.05 897.291 298.11C823.541 299.33 744.031 312.91 673.391 336.37Z" stroke="#9DCCD1" stroke-width="0.4196" stroke-miterlimit="10"/>
<path d="M706.17 259.06L706.09 258.82C747.4 245.1 793.89 237.16 837.01 236.45C880.13 235.75 914.74 242.35 934.42 255.07L934.29 255.28C893.72 229.06 791.39 230.76 706.17 259.06Z" stroke="#9DCCD1" stroke-width="0.4196" stroke-miterlimit="10"/>
<path d="M896.85 244.68C856.76 228.21 813.72 235 772.39 264.32L772.25 264.12C793.14 249.3 814.64 240.17 836.14 236.99C856.93 233.91 877.39 236.42 896.95 244.46C911.1 250.28 924.66 258.97 937.25 270.3C949.9 281.68 961.57 295.73 971.94 312.05C982.49 328.66 991.71 347.67 999.35 368.53C1007.21 390 1013.42 413.56 1017.81 438.55L1017.56 438.59" stroke="#6CC9D8" stroke-width="1.6846" stroke-miterlimit="10"/>
<path d="M855.331 441.26C844.481 379.6 832.331 327.79 820.201 291.44C808.381 256.02 797.271 237.21 788.091 237.03C788.051 237.03 788.001 237.03 787.961 237.03C781.551 237.03 776.331 246.19 772.431 264.25L772.191 264.2C776.121 246.01 781.431 236.78 787.971 236.78C788.021 236.78 788.061 236.78 788.101 236.78C807.311 237.15 833.801 317.4 855.581 441.22L855.331 441.26Z" stroke="#9DCCD1" stroke-width="0.4196" stroke-miterlimit="10"/>
<path d="M520.65 675.9L520.41 675.74C508.15 667.82 499.16 658.88 493.69 649.18C488.38 639.76 486.37 629.59 487.72 618.95C489.92 601.68 500.89 583.44 519.81 565.32C520.78 559.24 521.92 553.15 523.21 547.05C532.15 505.03 548.42 464.56 571.55 426.77C594.68 388.97 623.52 355.75 657.27 328.03C663.81 322.66 670.48 317.54 677.27 312.68C683.5 285.63 694.17 266.58 708.58 257.02C716.98 251.44 726.59 249.16 737.13 250.23C747.98 251.33 759.84 256 772.37 264.1L772.59 264.24L772.34 264.32C738.19 275.66 706.33 292.25 677.47 312.92C676 319.33 674.78 326.2 673.81 333.49C668.62 372.72 671.12 423.27 681.05 479.67L681.07 479.78L680.97 479.81C609.09 503.68 552.99 533.97 520.14 565.31C514.29 601.78 514.16 639.01 520.6 675.61L520.65 675.9ZM519.76 565.68C501.24 583.45 490.19 601.54 487.97 618.99C485.25 640.38 496.43 659.87 520.3 675.38C514.05 639.61 513.87 602.8 519.76 565.68ZM677.17 313.15C594.21 372.71 536.16 466 520.19 564.97C526.77 558.7 534.31 552.45 542.76 546.25C576.71 521.37 624.44 498.33 680.79 479.61C670.88 423.23 668.38 372.69 673.57 333.46C674.53 326.28 675.73 319.5 677.17 313.15ZM732.09 250.29C723.56 250.29 715.72 252.6 708.72 257.24C694.41 266.73 683.81 285.64 677.58 312.47C706.93 291.5 738.6 275.3 772.02 264.18C757.66 254.94 744.19 250.29 732.09 250.29Z" stroke="#9DCCD1" stroke-width="0.4196" stroke-miterlimit="10"/>
<path d="M506.5 456.49C509.07 436.32 525.5 414.61 554.03 393.7C583.36 372.2 624.61 352.3 673.3 336.13" stroke="#9DCCD1" stroke-width="0.4196" stroke-miterlimit="10"/>
<path d="M505.769 455.77C503.409 474.29 514.119 491.92 534.869 505.33L534.739 505.54" stroke="#6CC9D8" stroke-width="1.6846" stroke-miterlimit="10"/>
<path d="M625.08 357.94C612.88 350.06 607.17 340.13 608.56 329.22C611.67 304.74 649.05 277.77 706.1 258.82L706.18 259.06C649.22 277.97 611.91 304.87 608.81 329.25C607.43 340.06 613.11 349.91 625.22 357.73L625.08 357.94Z" stroke="#9DCCD1" stroke-width="0.4196" stroke-miterlimit="10"/>
<path d="M546.12 543.92C538.24 499.13 539.11 456.82 548.7 418.18C553.3 399.64 559.92 382.14 568.38 366.15C576.77 350.29 587.02 335.84 598.84 323.19C619.66 300.91 644.94 284.46 673.97 274.28C704.02 263.74 737.11 260.31 772.33 264.08L772.3 264.33C703.07 256.92 641.53 277.88 599.03 323.36C550.12 375.69 530.92 456.07 546.37 543.87L546.12 543.92Z" stroke="#6CC9D8" stroke-width="1.6846" stroke-miterlimit="10"/>
<path d="M488.559 614.22C474.809 536.07 493.539 457.63 541.289 393.37C554.039 376.21 568.779 360.22 585.089 345.85C601.539 331.36 619.709 318.41 639.079 307.37C679.439 284.37 724.259 269.81 772.299 264.09L772.329 264.34C678.309 275.53 594.179 322.62 541.489 393.51C493.779 457.72 475.069 536.08 488.799 614.17L488.559 614.22Z" stroke="#6CC9D8" stroke-width="1.0582" stroke-miterlimit="10"/>
<path d="M829.661 913.43C822.691 913.43 813.641 913.25 806.771 912.98C802.631 912.81 797.241 912.34 792.921 911.96L792.171 911.89C786.931 911.43 780.041 910.54 775.341 909.87C770.891 909.23 764.651 908.17 759.461 907.18C730.491 901.66 706.641 892.74 697.741 889.16C685.391 884.19 669.231 876.17 657.851 870.31C654.291 868.48 650.291 866.04 646.301 863.57C643.371 861.84 640.481 860.05 637.631 858.21C629.101 852.53 617.431 844.75 609.491 837.96L606.871 835.72C600.101 829.93 591.681 822.73 585.541 816.92C582.101 813.66 573.481 805.32 567.701 798.34C566.671 797.1 565.591 795.79 564.461 794.44C558.941 787.81 552.691 780.29 548.051 774.08C543.611 768.13 537.821 759.58 533.311 752.3C528.711 744.88 522.601 733.94 518.111 725.07C514.431 717.79 510.071 707.61 507.121 700.58C501.881 688.12 496.581 672.06 493.931 660.6C493.571 659.06 493.191 657.42 492.791 655.72C491.081 648.44 489.131 640.2 488.031 633.57C486.451 624.1 484.811 610.93 483.841 600.02C482.241 582.03 483.381 558.45 484.201 545.99C485.061 532.91 488.171 515.98 489.951 507.05C493.571 488.88 501.311 466.09 504.471 457.14C508.511 445.71 514.661 431.79 519.791 422.51C526.811 409.79 536.431 392.37 545.261 380.43C546.071 379.34 546.921 378.17 547.811 376.96C551.681 371.68 556.061 365.69 559.891 361.22C563.441 357.08 575.831 342.75 586.431 332.33C591.131 327.71 597.571 321.83 602.451 317.71C609.951 311.38 617.661 305.27 623.081 301.37C628.891 297.19 635.551 292.47 640.891 289.16C647.981 284.77 659.511 277.94 668.691 273.13C679.731 267.34 691.171 262.53 694.921 260.95C698.621 259.39 703.581 257.48 706.991 256.21C709.521 255.27 712.741 254.16 715.571 253.18C716.641 252.81 717.671 252.46 718.611 252.13C718.681 252.1 727.011 249.21 740.351 245.68C748.611 243.5 755.271 242.13 760.631 241.02C764.161 240.29 768.751 239.51 770.561 239.2C772.571 238.86 775.001 238.5 777.351 238.15C778.451 237.99 779.521 237.83 780.481 237.68C782.601 237.36 785.161 237.06 787.641 236.78C788.681 236.66 789.691 236.54 790.611 236.43C790.691 236.42 798.821 235.43 811.651 234.79C814.891 234.63 819.441 234.48 822.981 234.43C826.261 234.38 831.071 234.36 834.751 234.45C843.861 234.66 850.181 234.95 861.431 235.97C865.321 236.32 872.691 237.05 878.261 237.99C892.301 240.36 902.811 242.39 910.401 244.22C917.201 245.86 927.141 248.7 936.981 251.84C942.301 253.53 949.711 256.22 955.861 258.7C965.321 262.5 983.091 270 995.751 277.56C1005.55 283.4 1019.91 292.32 1030.81 299.81C1035.35 302.93 1040.76 307.3 1045.52 311.16C1047.28 312.59 1048.95 313.93 1050.51 315.17C1058.63 321.6 1068.33 330.59 1074.65 337.52C1075.86 338.85 1077.15 340.26 1078.49 341.72C1084.21 347.96 1090.69 355.02 1095.53 360.89C1099.87 366.14 1106.59 374.77 1111.23 381.8C1114.39 386.59 1122.33 398.74 1127.73 408.21C1130.44 412.95 1133.35 418.86 1136.17 424.57C1137.47 427.21 1138.7 429.7 1139.85 431.96C1144.13 440.37 1148.88 452.1 1151.67 461.16C1157.37 479.69 1162.99 498.95 1165.55 514.31C1167.2 524.23 1168.89 537.71 1169.74 547.86C1170.36 555.27 1170.72 565.94 1170.65 575.04C1170.57 586.05 1169.82 602.28 1167.99 614.81C1164.73 637.05 1161.13 654.33 1157.3 666.18C1152.8 680.08 1146.02 700.19 1139.16 714.37C1134.63 723.74 1127.63 736.84 1121.75 746.97C1117.35 754.54 1110.9 763.81 1108.33 767.44C1105.12 771.99 1098.94 780.52 1093.7 786.65C1082.92 799.24 1073.99 808.96 1067.16 815.54C1059.4 823.01 1051.35 830.2 1045.63 834.78C1037.31 841.43 1024.95 850.79 1015.19 857.11C1001.2 866.16 992.541 870.73 984.911 874.75C980.051 877.31 968.501 882.93 958.241 887.11C944.131 892.85 935.931 895.59 923.911 899.23C914.861 901.97 902.421 905.04 892.961 906.86C891.151 907.21 886.551 908.09 883.031 908.68C881.011 909.02 878.571 909.38 876.221 909.73C875.131 909.89 874.071 910.05 873.111 910.2C869.801 910.71 865.341 911.2 862.981 911.45C855.171 912.28 855.171 912.28 841.951 913.09C838.621 913.3 834.071 913.44 830.611 913.45C830.301 913.43 829.981 913.43 829.661 913.43ZM654.671 868.31C655.801 868.95 656.901 869.55 657.961 870.1C669.331 875.96 685.481 883.98 697.831 888.94C706.731 892.52 730.551 901.43 759.501 906.95C764.691 907.94 770.921 908.99 775.371 909.63C780.071 910.31 786.951 911.19 792.181 911.65L792.931 911.72C797.251 912.1 802.631 912.57 806.771 912.74C813.951 913.03 823.521 913.21 830.601 913.19C834.051 913.18 838.601 913.04 841.921 912.83C855.131 912.01 855.131 912.01 862.941 911.19C865.301 910.94 869.761 910.45 873.061 909.94C874.011 909.79 875.071 909.64 876.171 909.47C878.531 909.12 880.971 908.76 882.981 908.42C886.491 907.83 891.091 906.95 892.901 906.6C902.351 904.78 914.781 901.71 923.821 898.98C935.831 895.35 944.031 892.61 958.131 886.87C968.381 882.7 979.921 877.08 984.781 874.52C992.411 870.5 1001.07 865.94 1015.04 856.89C1024.79 850.58 1037.15 841.22 1045.46 834.58C1051.18 830 1059.22 822.82 1066.98 815.35C1073.81 808.78 1082.73 799.07 1093.51 786.48C1098.74 780.36 1104.92 771.83 1108.13 767.29C1110.7 763.66 1117.15 754.4 1121.54 746.84C1127.42 736.71 1134.42 723.62 1138.95 714.25C1145.8 700.08 1152.57 679.98 1157.07 666.09C1160.9 654.26 1164.5 636.99 1167.75 614.76C1169.58 602.24 1170.33 586.03 1170.41 575.03C1170.48 565.93 1170.12 555.27 1169.5 547.87C1168.65 537.72 1166.97 524.25 1165.31 514.34C1162.75 499 1157.13 479.74 1151.43 461.22C1148.65 452.17 1143.9 440.45 1139.63 432.06C1138.48 429.8 1137.25 427.3 1135.94 424.66C1133.12 418.95 1130.21 413.05 1127.51 408.31C1122.11 398.85 1114.18 386.7 1111.02 381.92C1106.38 374.9 1099.67 366.28 1095.33 361.03C1090.49 355.17 1084.01 348.11 1078.3 341.87C1076.96 340.41 1075.67 339 1074.46 337.67C1068.15 330.75 1058.46 321.78 1050.35 315.35C1048.79 314.12 1047.13 312.77 1045.36 311.34C1040.6 307.49 1035.19 303.12 1030.66 300C1019.76 292.51 1005.4 283.6 995.611 277.76C982.961 270.21 965.211 262.72 955.751 258.92C949.601 256.45 942.201 253.76 936.881 252.07C927.041 248.94 917.111 246.09 910.321 244.46C902.741 242.64 892.241 240.6 878.201 238.23C872.641 237.29 865.281 236.56 861.391 236.21C850.141 235.19 843.831 234.91 834.731 234.69C831.051 234.6 826.241 234.62 822.971 234.67C819.431 234.72 814.881 234.87 811.651 235.03C798.831 235.67 790.711 236.66 790.631 236.67C789.711 236.78 788.711 236.9 787.661 237.02C785.181 237.3 782.621 237.6 780.511 237.92C779.551 238.07 778.481 238.23 777.381 238.39C775.031 238.74 772.601 239.1 770.591 239.44C768.781 239.74 764.201 240.53 760.671 241.26C755.321 242.36 748.661 243.73 740.411 245.91C727.081 249.43 718.761 252.33 718.691 252.35C717.751 252.68 716.721 253.03 715.651 253.4C712.811 254.38 709.601 255.49 707.071 256.43C703.671 257.7 698.711 259.61 695.021 261.16C691.261 262.74 679.841 267.55 668.801 273.33C659.631 278.14 648.101 284.97 641.011 289.35C635.671 292.65 629.021 297.37 623.211 301.55C617.801 305.45 610.091 311.55 602.601 317.88C597.721 322 591.291 327.87 586.591 332.49C576.001 342.9 563.611 357.22 560.061 361.36C556.241 365.82 551.861 371.81 547.991 377.08C547.101 378.29 546.251 379.46 545.441 380.55C536.621 392.48 527.011 409.89 519.991 422.61C514.871 431.88 508.721 445.78 504.691 457.2C501.531 466.15 493.791 488.93 490.181 507.08C488.401 516 485.291 532.93 484.431 545.99C483.611 558.44 482.471 582.01 484.071 599.98C485.021 610.72 486.711 624.19 488.261 633.51C489.361 640.13 491.301 648.37 493.021 655.64C493.421 657.34 493.811 658.98 494.161 660.52C496.811 671.97 502.111 688.02 507.341 700.46C510.291 707.48 514.651 717.66 518.331 724.93C522.821 733.79 528.921 744.72 533.521 752.14C538.031 759.41 543.811 767.95 548.251 773.9C552.891 780.11 559.141 787.62 564.651 794.25C565.781 795.6 566.861 796.91 567.891 798.15C573.661 805.12 582.271 813.45 585.711 816.71C591.841 822.52 600.261 829.72 607.031 835.5L609.641 837.74C617.561 844.52 629.231 852.3 637.751 857.97C639.701 859.14 641.821 860.46 644.051 861.85C644.811 862.33 645.581 862.81 646.351 863.28C696.891 893.12 757.001 904.85 818.341 897.59C818.371 897.59 818.401 897.58 818.431 897.58C818.441 897.58 818.431 897.58 818.441 897.58C838.921 895.15 859.541 890.6 879.981 883.9C880.391 883.76 880.811 883.63 881.221 883.49L881.301 883.73C837.571 898.25 793.721 903.16 750.991 898.3C730.481 895.97 710.411 891.36 691.321 884.58C678.691 880.12 666.421 874.66 654.671 868.31Z" stroke="#6CC9D8" stroke-width="1.6846" stroke-miterlimit="10"/>
<path d="M520.311 675.38C529.851 717.81 555.601 800.13 629.711 852.6C640.351 860.13 651.101 866.42 661.711 871.67" stroke="#9DCCD1" stroke-width="0.4196" stroke-miterlimit="10"/>
<path d="M991.06 274.87C977.24 364.51 944.31 502.4 857.85 648.8C797.5 751 729.46 826.21 674.51 877.97" stroke="#9DCCD1" stroke-width="0.4196" stroke-miterlimit="10"/>
<path d="M535.16 395.66C562.92 441.82 632.93 543.83 765.69 610.64C944.62 700.69 1114.03 664.66 1160.82 653.05" stroke="#6CC9D8" stroke-width="1.6846" stroke-miterlimit="10"/>
<path d="M524.881 737.79C575.991 745.68 725.401 767.19 883.921 671.94C1033.39 582.12 1108.93 463.63 1132.51 417.16" stroke="#9DCCD1" stroke-width="0.4196" stroke-miterlimit="10"/>
<path d="M548.939 774.83C552.139 722.45 566.169 619.88 636.759 520.86C776.709 324.53 1016.44 313.99 1047.98 313.12" stroke="#6CC9D8" stroke-width="1.6846" stroke-miterlimit="10"/>
<path d="M576.789 342.29C607.889 375.89 693.659 453.52 832.779 486.73C987.699 523.71 1111.59 481.13 1152.17 463.6" stroke="#6CC9D8" stroke-width="1.6846" stroke-miterlimit="10"/>
<path d="M767.75 847.72C812.46 832.32 867.62 805.68 918.34 758.24C1088.85 598.75 1055.26 347.98 1050.37 315.34" stroke="#9DCCD1" stroke-width="0.4196" stroke-miterlimit="10"/>
<path d="M615.51 307.41C653.03 377.34 716.84 477.01 820.42 573.93C927.92 674.51 1035.85 732.46 1109.71 765.06" stroke="#9DCCD1" stroke-width="0.4196" stroke-miterlimit="10"/>
<path d="M932.08 334.7C935.012 334.7 937.39 332.323 937.39 329.39C937.39 326.457 935.012 324.08 932.08 324.08C929.147 324.08 926.77 326.457 926.77 329.39C926.77 332.323 929.147 334.7 932.08 334.7Z" fill="#023E7D"/>
<path d="M977.08 324.09C979.019 324.09 980.59 322.519 980.59 320.58C980.59 318.642 979.019 317.07 977.08 317.07C975.142 317.07 973.57 318.642 973.57 320.58C973.57 322.519 975.142 324.09 977.08 324.09Z" fill="#023E7D"/>
<path d="M683.77 379.11C686.78 379.11 689.22 376.67 689.22 373.66C689.22 370.65 686.78 368.21 683.77 368.21C680.76 368.21 678.32 370.65 678.32 373.66C678.32 376.67 680.76 379.11 683.77 379.11Z" fill="#0466C8"/>
<path d="M636.81 526.82C639.202 526.82 641.141 524.881 641.141 522.49C641.141 520.099 639.202 518.16 636.81 518.16C634.419 518.16 632.48 520.099 632.48 522.49C632.48 524.881 634.419 526.82 636.81 526.82Z" fill="#0466C8"/>
<path d="M630.729 568.26C632.546 568.26 634.019 566.787 634.019 564.97C634.019 563.153 632.546 561.68 630.729 561.68C628.912 561.68 627.439 563.153 627.439 564.97C627.439 566.787 628.912 568.26 630.729 568.26Z" fill="#0466C8"/>
<path d="M542.471 514.05C544.862 514.05 546.801 512.111 546.801 509.72C546.801 507.329 544.862 505.39 542.471 505.39C540.079 505.39 538.141 507.329 538.141 509.72C538.141 512.111 540.079 514.05 542.471 514.05Z" fill="#68A3DE"/>
<path d="M644.77 752.48C647.775 752.48 650.21 750.044 650.21 747.04C650.21 744.036 647.775 741.6 644.77 741.6C641.766 741.6 639.33 744.036 639.33 747.04C639.33 750.044 641.766 752.48 644.77 752.48Z" fill="#68A3DE"/>
<path d="M562.099 690.25C564.667 690.25 566.749 688.168 566.749 685.6C566.749 683.032 564.667 680.95 562.099 680.95C559.531 680.95 557.449 683.032 557.449 685.6C557.449 688.168 559.531 690.25 562.099 690.25Z" fill="#68A3DE"/>
<path d="M550.77 754.43C552.444 754.43 553.8 753.073 553.8 751.4C553.8 749.727 552.444 748.37 550.77 748.37C549.097 748.37 547.74 749.727 547.74 751.4C547.74 753.073 549.097 754.43 550.77 754.43Z" fill="#68A3DE"/>
<path d="M726.64 541.77C729.699 541.77 732.18 539.29 732.18 536.23C732.18 533.17 729.699 530.69 726.64 530.69C723.58 530.69 721.1 533.17 721.1 536.23C721.1 539.29 723.58 541.77 726.64 541.77Z" fill="#0466C8"/>
<path d="M688.01 566.25C689.711 566.25 691.09 564.871 691.09 563.17C691.09 561.469 689.711 560.09 688.01 560.09C686.309 560.09 684.93 561.469 684.93 563.17C684.93 564.871 686.309 566.25 688.01 566.25Z" fill="#68A3DE"/>
<path d="M720.131 587.32C721.235 587.32 722.131 586.425 722.131 585.32C722.131 584.215 721.235 583.32 720.131 583.32C719.026 583.32 718.131 584.215 718.131 585.32C718.131 586.425 719.026 587.32 720.131 587.32Z" fill="#68A3DE"/>
<path d="M736.96 596.59C737.716 596.59 738.33 595.977 738.33 595.22C738.33 594.463 737.716 593.85 736.96 593.85C736.203 593.85 735.59 594.463 735.59 595.22C735.59 595.977 736.203 596.59 736.96 596.59Z" fill="#68A3DE"/>
<path d="M706.089 260.71C707.774 260.71 709.139 259.344 709.139 257.66C709.139 255.976 707.774 254.61 706.089 254.61C704.405 254.61 703.039 255.976 703.039 257.66C703.039 259.344 704.405 260.71 706.089 260.71Z" fill="#9BC2E9"/>
<path d="M581.86 818.77C585.041 818.77 587.62 816.191 587.62 813.01C587.62 809.829 585.041 807.25 581.86 807.25C578.678 807.25 576.1 809.829 576.1 813.01C576.1 816.191 578.678 818.77 581.86 818.77Z" fill="#9BC2E9"/>
<path d="M827.93 703.87C827.51 707.05 824.6 709.28 821.42 708.87C818.24 708.45 816.01 705.54 816.42 702.36C816.84 699.18 819.75 696.95 822.93 697.36C826.11 697.78 828.35 700.69 827.93 703.87Z" fill="#0466C8"/>
<path d="M883.95 618.07C883.51 621.38 880.48 623.72 877.16 623.28C873.85 622.84 871.51 619.81 871.95 616.49C872.39 613.18 875.42 610.84 878.74 611.28C882.05 611.71 884.38 614.75 883.95 618.07Z" fill="#0466C8"/>
<path d="M880.93 890.12C877.68 889.79 875.32 886.89 875.65 883.64C875.98 880.39 878.88 878.03 882.13 878.36C885.38 878.69 887.74 881.59 887.41 884.84C887.08 888.09 884.18 890.46 880.93 890.12Z" fill="#0466C8"/>
<path d="M827.95 849.44C824.52 849.03 822.08 845.91 822.49 842.48C822.9 839.05 826.02 836.61 829.45 837.02C832.88 837.43 835.32 840.55 834.91 843.98C834.49 847.41 831.38 849.86 827.95 849.44Z" fill="#0466C8"/>
<path d="M729.221 831.28C726.261 830.92 724.151 828.23 724.511 825.27C724.871 822.31 727.561 820.2 730.521 820.56C733.481 820.92 735.591 823.61 735.231 826.57C734.871 829.53 732.181 831.64 729.221 831.28Z" fill="#0466C8"/>
<path d="M1107.45 662.81C1107.65 665.77 1110.22 668.01 1113.18 667.81C1116.14 667.61 1118.38 665.04 1118.18 662.08C1117.98 659.12 1115.41 656.88 1112.45 657.08C1109.48 657.28 1107.24 659.84 1107.45 662.81Z" fill="#023E7D"/>
<path d="M1111.48 603.68C1111.63 605.88 1109.96 607.79 1107.76 607.94C1105.56 608.09 1103.65 606.42 1103.5 604.22C1103.35 602.02 1105.02 600.11 1107.22 599.96C1109.42 599.81 1111.33 601.47 1111.48 603.68Z" fill="#023E7D"/>
<path d="M1077.32 731.04C1076.21 731.13 1075.25 730.3 1075.16 729.2C1075.07 728.09 1075.9 727.13 1077 727.04C1078.11 726.95 1079.07 727.78 1079.16 728.88C1079.25 729.98 1078.43 730.95 1077.32 731.04Z" fill="#023E7D"/>
<path d="M1066.32 747.03C1064.78 747.15 1063.44 746 1063.32 744.47C1063.2 742.93 1064.35 741.59 1065.88 741.47C1067.41 741.35 1068.76 742.5 1068.88 744.03C1069.01 745.56 1067.86 746.91 1066.32 747.03Z" fill="#0466C8"/>
<path d="M1024.43 568.15C1021.79 568.36 1019.49 566.39 1019.28 563.75C1019.07 561.11 1021.04 558.81 1023.68 558.6C1026.32 558.39 1028.62 560.36 1028.83 563C1029.04 565.64 1027.06 567.94 1024.43 568.15Z" fill="#023E7D"/>
<path d="M1057.33 670.6C1056.29 670.68 1055.38 669.9 1055.3 668.86C1055.22 667.82 1056 666.91 1057.04 666.83C1058.08 666.75 1058.99 667.53 1059.07 668.57C1059.15 669.61 1058.37 670.52 1057.33 670.6Z" fill="#023E7D"/>
<path d="M997.42 364.49C995.36 364.65 993.56 363.12 993.4 361.06C993.24 359 994.77 357.2 996.83 357.04C998.89 356.88 1000.69 358.41 1000.85 360.47C1001.01 362.53 999.47 364.33 997.42 364.49Z" fill="#023E7D"/>
<path d="M1021.04 460.56C1018.56 460.76 1016.39 458.9 1016.19 456.42C1015.99 453.94 1017.85 451.77 1020.33 451.57C1022.81 451.37 1024.98 453.23 1025.18 455.71C1025.38 458.2 1023.52 460.37 1021.04 460.56Z" fill="#023E7D"/>
<path d="M566.451 359.13C566.131 361.6 563.861 363.34 561.391 363.01C558.921 362.69 557.181 360.42 557.511 357.95C557.831 355.48 560.101 353.74 562.571 354.07C565.031 354.4 566.771 356.66 566.451 359.13Z" fill="#9BC2E9"/>
<path d="M524.489 429.29C524.009 432.92 520.679 435.48 517.039 435.01C513.409 434.53 510.849 431.2 511.319 427.56C511.799 423.93 515.129 421.37 518.769 421.84C522.409 422.32 524.969 425.65 524.489 429.29Z" fill="#9BC2E9"/>
<path d="M713.461 327.11C711.661 326.89 710.381 325.26 710.601 323.46C710.821 321.66 712.451 320.38 714.251 320.6C716.051 320.82 717.331 322.45 717.111 324.25C716.891 326.04 715.261 327.33 713.461 327.11Z" fill="#0466C8"/>
<path d="M682.28 313.76C681.92 316.48 679.42 318.4 676.7 318.04C673.98 317.68 672.06 315.18 672.42 312.46C672.78 309.74 675.28 307.82 678 308.18C680.72 308.54 682.64 311.04 682.28 313.76Z" fill="#0466C8"/>
<path d="M1132.95 474.36C1134.27 474.36 1135.34 473.29 1135.34 471.97C1135.34 470.65 1134.27 469.58 1132.95 469.58C1131.63 469.58 1130.56 470.65 1130.56 471.97C1130.56 473.29 1131.63 474.36 1132.95 474.36Z" fill="#023E7D"/>
<path d="M1132.51 421.03C1134.34 421.03 1135.83 419.544 1135.83 417.71C1135.83 415.876 1134.34 414.39 1132.51 414.39C1130.68 414.39 1129.19 415.876 1129.19 417.71C1129.19 419.544 1130.68 421.03 1132.51 421.03Z" fill="#023E7D"/>
<path d="M1167.19 528.51C1169.86 528.51 1172.02 526.348 1172.02 523.68C1172.02 521.012 1169.86 518.85 1167.19 518.85C1164.52 518.85 1162.36 521.012 1162.36 523.68C1162.36 526.348 1164.52 528.51 1167.19 528.51Z" fill="#023E7D"/>
<path d="M728.39 651.21C729.61 651.21 730.6 650.221 730.6 649C730.6 647.78 729.61 646.79 728.39 646.79C727.169 646.79 726.18 647.78 726.18 649C726.18 650.221 727.169 651.21 728.39 651.21Z" fill="#68A3DE"/>
<path d="M754.831 714.03C756.554 714.03 757.951 712.633 757.951 710.91C757.951 709.187 756.554 707.79 754.831 707.79C753.108 707.79 751.711 709.187 751.711 710.91C751.711 712.633 753.108 714.03 754.831 714.03Z" fill="#68A3DE"/>
<path d="M661.7 678.19C662.965 678.19 663.99 677.165 663.99 675.9C663.99 674.635 662.965 673.61 661.7 673.61C660.435 673.61 659.41 674.635 659.41 675.9C659.41 677.165 660.435 678.19 661.7 678.19Z" fill="#68A3DE"/>
<path d="M592.24 400.55C594.361 400.55 596.08 398.831 596.08 396.71C596.08 394.589 594.361 392.87 592.24 392.87C590.12 392.87 588.4 394.589 588.4 396.71C588.4 398.831 590.12 400.55 592.24 400.55Z" fill="#68A3DE"/>
<path d="M855.331 444.86C857.319 444.86 858.93 443.248 858.93 441.26C858.93 439.272 857.319 437.66 855.331 437.66C853.342 437.66 851.73 439.272 851.73 441.26C851.73 443.248 853.342 444.86 855.331 444.86Z" fill="#68A3DE"/>
<path d="M991.06 276.85C992.154 276.85 993.04 275.964 993.04 274.87C993.04 273.776 992.154 272.89 991.06 272.89C989.967 272.89 989.08 273.776 989.08 274.87C989.08 275.964 989.967 276.85 991.06 276.85Z" fill="#023E7D"/>
<path d="M675.67 449.75C677.741 449.75 679.42 448.071 679.42 446C679.42 443.929 677.741 442.25 675.67 442.25C673.599 442.25 671.92 443.929 671.92 446C671.92 448.071 673.599 449.75 675.67 449.75Z" fill="#68A3DE"/>
<path d="M1032.57 849.64C1034.93 849.64 1036.85 847.724 1036.85 845.36C1036.85 842.996 1034.93 841.08 1032.57 841.08C1030.21 841.08 1028.29 842.996 1028.29 845.36C1028.29 847.724 1030.21 849.64 1032.57 849.64Z" fill="#023E7D"/>
<path d="M685.369 505.3C687.032 505.3 688.379 503.952 688.379 502.29C688.379 500.628 687.032 499.28 685.369 499.28C683.707 499.28 682.359 500.628 682.359 502.29C682.359 503.952 683.707 505.3 685.369 505.3Z" fill="#68A3DE"/>
<path d="M886.281 239.63C883.131 357.91 860.09 686.05 643.49 810.34C630.35 817.88 616.37 824.74 601.48 830.78" stroke="#9DCCD1" stroke-width="0.4196" stroke-miterlimit="10"/>
<path d="M777.17 267.35C781.31 270.34 786.97 274.67 793.33 280.3C804.53 290.22 811.9 298.89 820.18 308.71C824.46 313.78 831.92 322.88 840.65 335C851.37 349.89 858.51 361.75 864.48 371.71C874.74 388.82 881.87 402.6 885.21 409.05C888.66 415.7 891.82 422.1 892.3 423.08C893.86 426.25 897.04 432.74 900.93 441.11C902.55 444.59 905.73 451.5 909.59 460.36C911.39 464.49 914.63 472.01 918.52 481.58C918.52 481.58 921.31 488.44 924.01 495.41C937.96 531.39 948.94 568.15 948.94 568.15C954.54 586.91 958.34 601.71 960.16 609.02C963.37 621.86 965.52 631.65 966.24 635.01C969.72 651.03 971.97 663.7 973.05 670.01C974.64 679.27 977.14 694.03 979.27 713.61C981.16 731.05 981.83 743.77 982.02 747.78C982.54 758.5 982.59 766.2 982.6 768.87C982.62 773.74 982.63 780.76 982.14 790.01C981.89 794.64 981.48 802.15 980.28 811.73C979.44 818.44 978.43 826.42 975.97 836.44C973.74 845.53 971.31 855.18 965.3 866.54C958.81 878.83 952.66 884.57 951.03 886.05C947.13 889.58 943.43 891.98 940.76 893.5" stroke="#6CC9D8" stroke-width="1.6846" stroke-miterlimit="10"/>
<path d="M968.289 864.21C966.539 864 965.289 862.41 965.509 860.66C965.719 858.91 967.309 857.66 969.059 857.88C970.809 858.09 972.06 859.68 971.84 861.43C971.63 863.17 970.039 864.42 968.289 864.21Z" fill="#0466C8"/>
<path d="M976.36 668.32C976.08 670.44 974.14 671.93 972.02 671.65C969.9 671.37 968.41 669.43 968.69 667.31C968.97 665.19 970.91 663.7 973.03 663.98C975.15 664.26 976.64 666.21 976.36 668.32Z" fill="#0466C8"/>
<path d="M960.329 613.37C961.826 613.37 963.039 612.157 963.039 610.66C963.039 609.163 961.826 607.95 960.329 607.95C958.832 607.95 957.619 609.163 957.619 610.66C957.619 612.157 958.832 613.37 960.329 613.37Z" fill="#0466C8"/>
<path d="M926.801 505.76C923.911 505.41 921.841 502.78 922.191 499.89C922.541 497 925.171 494.93 928.061 495.28C930.951 495.63 933.021 498.26 932.671 501.15C932.321 504.05 929.691 506.11 926.801 505.76Z" fill="#0466C8"/>
<path d="M853.34 359.28C856.289 359.28 858.68 356.889 858.68 353.94C858.68 350.991 856.289 348.6 853.34 348.6C850.391 348.6 848 350.991 848 353.94C848 356.889 850.391 359.28 853.34 359.28Z" fill="#68A3DE"/>
<path d="M773.271 269.75C776.342 269.75 778.831 267.261 778.831 264.19C778.831 261.119 776.342 258.63 773.271 258.63C770.2 258.63 767.711 261.119 767.711 264.19C767.711 267.261 770.2 269.75 773.271 269.75Z" fill="#0466C8"/>
<path d="M498.039 476.53C514.769 534.91 559.419 656.68 674.929 719.37C691.539 728.39 713.079 738.06 752.689 748.89C822.939 768.1 944.039 789.33 1112.37 761.63" stroke="#9DCCD1" stroke-width="0.4196" stroke-miterlimit="10"/>
<path d="M902.07 777.15C900.07 776.91 898.64 775.09 898.88 773.09C899.12 771.09 900.94 769.66 902.94 769.9C904.94 770.14 906.37 771.96 906.13 773.96C905.88 775.96 904.07 777.39 902.07 777.15Z" fill="#0466C8"/>
<path d="M576.79 643.56C579.794 643.56 582.23 641.124 582.23 638.12C582.23 635.116 579.794 632.68 576.79 632.68C573.785 632.68 571.35 635.116 571.35 638.12C571.35 641.124 573.785 643.56 576.79 643.56Z" fill="#68A3DE"/>
</g>
<defs>
<clipPath id="clip0">
<rect width="1359" height="1045" fill="white"/>
</clipPath>
</defs>
</svg>
